<?xml version="1.0" standalone="no"?>
<!DOCTYPE svg PUBLIC "-//W3C//DTD SVG 20010904//EN"
 "http://www.w3.org/TR/2001/REC-SVG-20010904/DTD/svg10.dtd">
<svg version="1.0" xmlns="http://www.w3.org/2000/svg"
 width="120.000000pt" height="120.000000pt" viewBox="0 0 120.000000 120.000000"
 preserveAspectRatio="xMidYMid meet">
<metadata>
Created by potrace 1.14, written by Peter Selinger 2001-2017
</metadata>
<g transform="translate(0.000000,120.000000) scale(0.100000,-0.100000)"
fill="#000000" stroke="none">
<path d="M571 1059 c-19 -30 -36 -97 -28 -105 10 -11 127 -11 141 -1 14 11 11
20 -21 75 -43 71 -64 78 -92 31z"/>
<path d="M848 1002 c-26 -9 -55 -25 -64 -34 -16 -15 -15 -18 12 -43 16 -15 41
-36 55 -46 26 -18 27 -18 50 0 20 16 23 28 24 77 0 68 -6 71 -77 46z"/>
<path d="M286 934 c-6 -16 33 -103 56 -121 19 -16 101 61 93 87 -12 38 -136
67 -149 34z"/>
<path d="M547 846 c-55 -20 -130 -81 -165 -133 -39 -60 -50 -258 -18 -320 18
-36 66 -76 110 -93 67 -25 233 -31 306 -11 67 19 133 91 147 160 32 161 -30
317 -151 378 -62 32 -170 41 -229 19z"/>
<path d="M1026 791 c-57 -9 -65 -29 -37 -90 20 -41 47 -71 56 -59 97 137 94
165 -19 149z"/>
<path d="M160 671 c-25 -9 -46 -24 -48 -33 -3 -15 49 -62 97 -88 32 -17 48 1
56 65 4 28 8 55 9 60 2 17 -66 15 -114 -4z"/>
<path d="M1049 498 c0 -2 -2 -11 -4 -20 -2 -9 -8 -33 -15 -53 -16 -49 -2 -63
73 -69 l57 -6 -5 31 c-11 60 -52 119 -84 119 -11 0 -21 -1 -22 -2z"/>
<path d="M193 379 c-18 -28 -33 -60 -33 -70 0 -22 27 -38 57 -33 22 4 93 42
93 51 0 7 -22 47 -29 53 -3 3 -11 14 -17 25 -19 34 -38 27 -71 -26z"/>
<path d="M932 293 c-11 -10 -27 -30 -36 -44 -15 -24 -15 -26 14 -47 65 -49
103 -46 95 7 -2 14 -7 43 -10 64 -7 42 -29 49 -63 20z"/>
<path d="M387 237 c-7 -19 -2 -155 6 -163 11 -11 69 18 104 53 41 42 34 62
-37 98 -57 29 -66 30 -73 12z"/>
<path d="M698 183 c-71 -5 -74 -19 -24 -85 35 -46 60 -63 77 -52 15 9 49 81
49 103 0 17 -31 46 -42 39 -2 -1 -29 -3 -60 -5z"/>
</g>
</svg>
