 <svg width="249" height="120" viewBox="0 0 249 120" fill="none" xmlns="http://www.w3.org/2000/svg">
          <g clip-path="url(#clip0_75712_5642)">
            <path
              fill-rule="evenodd"
              clip-rule="evenodd"
              d="M-7.49826e-05 56H51.0768V4.79999H-7.49826e-05V6.39999H49.4807V54.4H-7.49826e-05V56Z"
              fill="#767676"
            />
            <path
              fill-rule="evenodd"
              clip-rule="evenodd"
              d="M98.9615 6.39999H51.0768V54.4H98.9615V6.39999ZM49.4807 4.79999V56H100.558V4.79999H49.4807Z"
              fill="#767676"
            />
            <path
              fill-rule="evenodd"
              clip-rule="evenodd"
              d="M148.442 6.39999H100.558V54.4H148.442V6.39999ZM98.9615 4.79999V56H150.038V4.79999H98.9615Z"
              fill="#767676"
            />
            <path
              fill-rule="evenodd"
              clip-rule="evenodd"
              d="M197.923 6.39999H150.038V54.4H197.923V6.39999ZM148.442 4.79999V56H199.519V4.79999H148.442Z"
              fill="#767676"
            />
            <path
              fill-rule="evenodd"
              clip-rule="evenodd"
              d="M249 4.79999H197.923V56H249V54.4H199.519V6.39999H249V4.79999Z"
              fill="#767676"
            />
            <path
              fill-rule="evenodd"
              clip-rule="evenodd"
              d="M25.5384 65.6H-22.3462V113.6H25.5384V65.6ZM-23.9424 64V115.2H27.1345V64H-23.9424Z"
              fill="#767676"
            />
            <path
              fill-rule="evenodd"
              clip-rule="evenodd"
              d="M75.0192 65.6H27.1345V113.6H75.0192V65.6ZM25.5384 64V115.2H76.6153V64H25.5384Z"
              fill="#767676"
            />
            <path
              fill-rule="evenodd"
              clip-rule="evenodd"
              d="M124.5 65.6H76.6153V113.6H124.5V65.6ZM75.0192 64V115.2H126.096V64H75.0192Z"
              fill="#767676"
            />
            <path
              fill-rule="evenodd"
              clip-rule="evenodd"
              d="M173.981 65.6H126.096V113.6H173.981V65.6ZM124.5 64V115.2H175.577V64H124.5Z"
              fill="#767676"
            />
            <path
              fill-rule="evenodd"
              clip-rule="evenodd"
              d="M223.461 65.6H175.577V113.6H223.461V65.6ZM173.981 64V115.2H225.058V64H173.981Z"
              fill="#767676"
            />
            <path
              fill-rule="evenodd"
              clip-rule="evenodd"
              d="M272.942 65.6H225.058V113.6H272.942V65.6ZM223.461 64V115.2H274.538V64H223.461Z"
              fill="#767676"
            />
            <path
              fill-rule="evenodd"
              clip-rule="evenodd"
              d="M249 1.6H0V0H249V1.6ZM249 6.4H0V4.8H249V6.4Z"
              fill="#767676"
            />
            <path
              fill-rule="evenodd"
              clip-rule="evenodd"
              d="M249 115.2H0V113.6H249V115.2ZM249 120H0V118.4H249V120Z"
              fill="#767676"
            />
            <path
              fill-rule="evenodd"
              clip-rule="evenodd"
              d="M249 56H0V54.4H249V56ZM249 60.8H0V59.2H249V60.8ZM249 65.6H0V64H249V65.6Z"
              fill="#767676"
            />
            <path
              d="M24.6255 27.86C25.7455 27.8 26.5955 27.48 27.1755 26.9C27.7555 26.3 28.0455 25.55 28.0455 24.65C28.0455 23.79 27.7555 23.06 27.1755 22.46C26.5955 21.84 25.8055 21.53 24.8055 21.53C23.9055 21.53 23.1555 21.84 22.5555 22.46C21.9755 23.08 21.6855 23.81 21.6855 24.65C21.6855 25.57 21.9655 26.35 22.5255 26.99C23.0855 27.61 23.7855 27.9 24.6255 27.86ZM15.6255 37.91C15.6255 37.63 15.7255 37.41 15.9255 37.25C16.1255 37.07 16.3955 36.95 16.7355 36.89C18.8155 36.57 21.0555 36.37 23.4555 36.29L23.6055 34.13C23.6655 33.53 23.7355 32.88 23.8155 32.18C23.8355 31.9 23.9455 31.69 24.1455 31.55C24.3655 31.39 24.6255 31.31 24.9255 31.31C25.3055 31.31 25.6055 31.44 25.8255 31.7C26.0655 31.94 26.1555 32.24 26.0955 32.6C25.9355 34.12 25.8255 35.33 25.7655 36.23L27.1155 36.2C29.1955 36.2 31.4155 36.31 33.7755 36.53C34.0355 36.59 34.2355 36.71 34.3755 36.89C34.5155 37.07 34.5855 37.27 34.5855 37.49C34.5855 37.83 34.4755 38.1 34.2555 38.3C34.0555 38.5 33.7955 38.6 33.4755 38.6C33.2955 38.6 33.1755 38.59 33.1155 38.57C31.0155 38.37 29.1255 38.27 27.4455 38.27C26.2855 38.27 25.2955 38.28 24.4755 38.3C20.7755 38.56 18.2055 38.78 16.7655 38.96C16.4055 39 16.1255 38.94 15.9255 38.78C15.7255 38.6 15.6255 38.31 15.6255 37.91ZM19.4055 24.59C19.4055 22.97 20.0655 21.61 21.3855 20.51C22.2655 19.77 23.4055 19.4 24.8055 19.4C25.6655 19.4 26.4555 19.56 27.1755 19.88C27.9155 20.18 28.5855 20.73 29.1855 21.53C29.4455 21.91 29.6555 22.37 29.8155 22.91C29.9955 23.45 30.0855 23.98 30.0855 24.5C30.0855 25.24 29.9655 25.95 29.7255 26.63C29.3455 27.73 28.6855 28.56 27.7455 29.12C26.8055 29.66 25.8055 29.93 24.7455 29.93C23.3455 29.93 22.1655 29.51 21.2055 28.67C20.6655 28.29 20.2255 27.7 19.8855 26.9C19.5655 26.1 19.4055 25.33 19.4055 24.59Z"
              fill="#29363D"
            />
            <path
              d="M42.5976 77.42C42.6576 78.52 42.6876 79.88 42.6876 81.5C42.6876 82.86 42.6676 84.06 42.6276 85.1L46.3776 84.77L49.7976 84.44L50.5176 84.35C50.8976 84.31 51.2076 84.37 51.4476 84.53C51.7076 84.67 51.8676 84.91 51.9276 85.25C51.9676 85.51 51.8976 85.77 51.7176 86.03C51.5576 86.29 51.3376 86.44 51.0576 86.48C50.6576 86.54 49.7776 86.63 48.4176 86.75L42.2976 87.29C41.6376 87.29 41.1676 87.12 40.8876 86.78C40.6076 86.42 40.4676 85.87 40.4676 85.13V80.93C40.4476 80.39 40.4376 79.25 40.4376 77.51C40.4376 77.19 40.5376 76.93 40.7376 76.73C40.9376 76.51 41.1876 76.4 41.4876 76.4C41.8076 76.4 42.0676 76.5 42.2676 76.7C42.4676 76.9 42.5776 77.14 42.5976 77.42ZM43.0176 90.77C43.0176 90.49 43.1076 90.26 43.2876 90.08C43.4676 89.9 43.7076 89.79 44.0076 89.75C44.6876 89.71 45.4376 89.69 46.2576 89.69C48.1976 89.69 50.1276 89.68 52.0476 89.66L55.6476 89.57C56.8676 89.57 57.4776 90.1 57.4776 91.16C57.4776 91.38 57.4476 91.6 57.3876 91.82C57.1276 93 56.9576 93.7 56.8776 93.92L56.8176 94.13C56.8976 94.29 56.9376 94.44 56.9376 94.58C56.9376 94.92 56.8176 95.19 56.5776 95.39C56.3576 95.57 56.0476 95.66 55.6476 95.66H54.1776C53.8176 95.68 53.1176 95.69 52.0776 95.69L50.0076 95.72L46.1676 95.84C46.1876 96.12 46.2476 96.35 46.3476 96.53C46.4476 96.69 46.6176 96.88 46.8576 97.1C47.0376 97.28 47.3076 97.43 47.6676 97.55C48.0476 97.67 48.4276 97.74 48.8076 97.76C49.3076 97.78 50.0376 97.77 50.9976 97.73C51.9776 97.69 52.6376 97.64 52.9776 97.58C53.3176 97.54 53.5976 97.62 53.8176 97.82C54.0376 98.02 54.1476 98.3 54.1476 98.66C54.1476 99.18 53.8276 99.53 53.1876 99.71C52.9276 99.77 52.2676 99.85 51.2076 99.95H48.7476C48.0476 99.91 47.3676 99.76 46.7076 99.5C46.0676 99.24 45.5476 98.91 45.1476 98.51C44.7076 98.05 44.3876 97.62 44.1876 97.22C43.9876 96.82 43.8876 96.37 43.8876 95.87V95.81C43.7076 95.71 43.5576 95.58 43.4376 95.42C43.3376 95.24 43.2876 95.05 43.2876 94.85C43.2876 94.55 43.3776 94.3 43.5576 94.1C43.7576 93.9 44.0076 93.79 44.3076 93.77L46.9776 93.68C48.4176 93.68 50.5776 93.65 53.4576 93.59L54.1176 93.56C54.2776 93.54 54.4776 93.53 54.7176 93.53C54.8576 92.91 54.9776 92.3 55.0776 91.7L52.5576 91.76L46.4376 91.79L44.1276 91.85C43.8076 91.85 43.5376 91.75 43.3176 91.55C43.1176 91.35 43.0176 91.09 43.0176 90.77ZM54.6876 81.83C54.6876 79.93 54.7476 78.08 54.8676 76.28C54.8876 76.02 54.9976 75.8 55.1976 75.62C55.3976 75.42 55.6476 75.32 55.9476 75.32C56.3276 75.32 56.6076 75.41 56.7876 75.59C56.9876 75.77 57.0776 76.08 57.0576 76.52L56.9676 78.2C56.8876 79.72 56.8476 80.6 56.8476 80.84V80.93C58.3076 80.07 59.5676 79.43 60.6276 79.01C60.8276 78.97 60.9676 78.95 61.0476 78.95C61.5076 78.95 61.8276 79.14 62.0076 79.52C62.0676 79.64 62.0976 79.78 62.0976 79.94C62.0976 80.16 62.0276 80.37 61.8876 80.57C61.7676 80.75 61.5876 80.9 61.3476 81.02L59.1876 81.89L56.9376 82.82L56.9676 84.11L56.9976 86.42C56.9976 86.76 56.8976 87.04 56.6976 87.26C56.4976 87.46 56.2276 87.56 55.8876 87.56C55.6276 87.56 55.3976 87.48 55.1976 87.32C54.9976 87.14 54.8876 86.93 54.8676 86.69C54.7476 85.31 54.6876 83.69 54.6876 81.83Z"
              fill="#29363D"
            />
            <path
              d="M89.5886 92.66C89.2886 92.66 89.0386 92.55 88.8386 92.33C88.6586 92.11 88.5686 91.84 88.5686 91.52C88.5686 91.36 88.6686 90.9 88.8686 90.14C89.0886 89.36 89.2986 88.67 89.4986 88.07C90.1586 85.87 90.8186 83.86 91.4786 82.04C92.0986 80.24 92.5186 79.15 92.7386 78.77C92.9186 78.43 93.1586 78.26 93.4586 78.26C93.7586 78.26 93.9986 78.32 94.1786 78.44C94.4786 78.64 94.6286 78.89 94.6286 79.19C94.6286 79.45 94.5786 79.73 94.4786 80.03L93.9086 81.5C93.7886 81.78 93.5686 82.39 93.2486 83.33C93.2486 83.33 93.2486 83.34 93.2486 83.36C93.2686 83.36 93.2786 83.36 93.2786 83.36C93.8786 84.66 94.6286 86.05 95.5286 87.53C96.1886 85.03 96.9986 82.29 97.9586 79.31C98.1186 78.91 98.3886 78.71 98.7686 78.71C98.9686 78.71 99.1686 78.77 99.3686 78.89C99.7486 79.11 99.9386 79.44 99.9386 79.88C99.9386 80.12 99.8986 80.31 99.8186 80.45C99.5186 81.23 99.1486 82.42 98.7086 84.02L98.7986 84.23C99.0186 85.21 100.159 87.28 102.219 90.44C102.499 90.9 102.639 91.27 102.639 91.55C102.639 91.81 102.509 92.06 102.249 92.3C102.029 92.46 101.809 92.54 101.589 92.54C101.209 92.54 100.879 92.33 100.599 91.91C99.7986 90.67 99.2086 89.76 98.8286 89.18C98.4686 88.58 98.1286 87.92 97.8086 87.2L97.1486 89.72C96.8686 90.98 96.6286 91.95 96.4286 92.63C96.3086 92.89 96.1786 93.08 96.0386 93.2C95.8986 93.32 95.6886 93.38 95.4086 93.38C95.0486 93.38 94.7686 93.26 94.5686 93.02C94.3686 92.78 94.3086 92.48 94.3886 92.12C94.5686 91.3 94.7086 90.71 94.8086 90.35C94.0286 89.17 93.2286 87.74 92.4086 86.06C92.2286 86.64 92.0686 87.15 91.9286 87.59C91.8086 88.01 91.6986 88.37 91.5986 88.67L91.4186 89.3L90.6086 91.82C90.4686 92.38 90.1286 92.66 89.5886 92.66ZM105.309 84.32C105.309 82.74 105.319 81.81 105.339 81.53C105.339 79.51 105.359 78.06 105.399 77.18C105.419 76.88 105.539 76.64 105.759 76.46C105.979 76.26 106.239 76.16 106.539 76.16C106.839 76.16 107.109 76.28 107.349 76.52C107.589 76.76 107.709 77.04 107.709 77.36C107.709 77.68 107.699 77.97 107.679 78.23L107.649 81.62C107.609 82.14 107.589 82.66 107.589 83.18L107.499 89.57C107.479 91.69 107.569 93.9 107.769 96.2C107.809 96.58 107.719 96.89 107.499 97.13C107.279 97.35 106.979 97.46 106.599 97.46C106.319 97.46 106.079 97.37 105.879 97.19C105.679 97.01 105.559 96.79 105.519 96.53C105.319 95.13 105.219 92.79 105.219 89.51L105.309 84.32Z"
              fill="#29363D"
            />
            <path
              d="M142.112 84.17C141.912 84.05 141.752 83.84 141.632 83.54C141.532 83.22 141.482 82.89 141.482 82.55V79.91C141.482 79.41 141.492 79.07 141.512 78.89C141.532 77.93 141.642 77 141.842 76.1C141.962 75.62 142.272 75.38 142.772 75.38C142.932 75.38 143.072 75.4 143.192 75.44C143.492 75.54 143.692 75.68 143.792 75.86C143.912 76.04 143.952 76.28 143.912 76.58C143.792 77.34 143.712 78.07 143.672 78.77C143.632 79.45 143.612 80.58 143.612 82.16C144.252 82.02 145.432 81.88 147.152 81.74C147.332 81.74 147.812 81.7 148.592 81.62C149.432 81.56 150.602 81.5 152.102 81.44L154.562 81.32C154.982 81.28 155.312 81.35 155.552 81.53C155.812 81.69 155.942 81.97 155.942 82.37C155.942 82.71 155.812 82.98 155.552 83.18C155.292 83.38 154.972 83.48 154.592 83.48L153.962 83.51L151.592 83.63C149.872 83.77 148.542 83.87 147.602 83.93L146.552 83.99C146.052 84.07 145.582 84.12 145.142 84.14C144.422 84.22 143.892 84.29 143.552 84.35L142.922 84.41C142.642 84.41 142.452 84.37 142.352 84.29L142.112 84.17ZM139.472 88.61C139.492 88.31 139.602 88.07 139.802 87.89C140.002 87.69 140.262 87.57 140.582 87.53L142.802 87.2C144.162 87.02 146.712 86.87 150.452 86.75H151.352H152.522C155.322 86.75 157.252 86.87 158.312 87.11C158.572 87.15 158.772 87.26 158.912 87.44C159.052 87.6 159.132 87.8 159.152 88.04C159.152 88.76 158.782 89.13 158.042 89.15C157.822 89.15 157.682 89.14 157.622 89.12C156.302 88.98 154.412 88.91 151.952 88.91H150.512C149.152 88.93 147.862 88.98 146.642 89.06C144.662 89.22 143.122 89.36 142.022 89.48L140.612 89.72C140.312 89.76 140.042 89.67 139.802 89.45C139.582 89.23 139.472 88.95 139.472 88.61ZM141.332 93.92C141.192 93.72 141.122 93.49 141.122 93.23C141.122 92.85 141.292 92.55 141.632 92.33C141.812 92.21 142.012 92.15 142.232 92.15C142.652 92.15 142.992 92.35 143.252 92.75C143.612 93.27 144.062 93.8 144.602 94.34C145.142 94.88 145.732 95.31 146.372 95.63C148.092 96.53 150.312 96.98 153.032 96.98C153.352 96.98 153.842 96.96 154.502 96.92C155.182 96.86 155.742 96.78 156.182 96.68C156.282 96.66 156.432 96.65 156.632 96.65C157.172 96.65 157.502 96.94 157.622 97.52C157.642 97.58 157.652 97.66 157.652 97.76C157.652 98.04 157.562 98.27 157.382 98.45C157.222 98.65 156.962 98.78 156.602 98.84C155.362 99.06 154.302 99.17 153.422 99.17C151.702 99.17 150.202 99.06 148.922 98.84C147.642 98.64 146.422 98.24 145.262 97.64C144.362 97.18 143.562 96.6 142.862 95.9C142.162 95.2 141.652 94.54 141.332 93.92Z"
              fill="#29363D"
            />
            <path
              d="M67.2 25.46C66.98 25.34 66.81 25.12 66.69 24.8C66.59 24.48 66.54 24.16 66.54 23.84C66.54 22.42 66.56 21.32 66.6 20.54C66.64 19.74 66.73 18.92 66.87 18.08C66.91 17.84 67.01 17.66 67.17 17.54C67.33 17.42 67.53 17.36 67.77 17.36C67.95 17.36 68.1 17.38 68.22 17.42C68.78 17.56 69.01 17.94 68.91 18.56C68.81 19.28 68.75 19.86 68.73 20.3C68.71 20.74 68.7 21.79 68.7 23.45C69.18 23.35 70.36 23.22 72.24 23.06C72.42 23.06 72.9 23.02 73.68 22.94C74.38 22.86 75.55 22.79 77.19 22.73L79.65 22.61C80.07 22.57 80.4 22.64 80.64 22.82C80.9 22.98 81.03 23.26 81.03 23.66C81.03 24 80.9 24.27 80.64 24.47C80.38 24.67 80.06 24.77 79.68 24.77L79.02 24.8L76.65 24.92C74.97 25.06 73.65 25.16 72.69 25.22L71.61 25.28C71.15 25.36 70.69 25.41 70.23 25.43C69.75 25.47 69.22 25.55 68.64 25.67L67.98 25.73C67.72 25.73 67.54 25.69 67.44 25.61L67.2 25.46ZM63.54 29.06C63.56 28.78 63.68 28.54 63.9 28.34C64.12 28.14 64.38 28.02 64.68 27.98L67.14 27.65C68.64 27.47 71.25 27.35 74.97 27.29C75.91 27.29 77.25 27.33 78.99 27.41C80.73 27.47 81.91 27.56 82.53 27.68C82.77 27.72 82.96 27.82 83.1 27.98C83.26 28.14 83.34 28.32 83.34 28.52C83.34 29.02 83.21 29.36 82.95 29.54C82.71 29.7 82.36 29.76 81.9 29.72C79.72 29.54 77.63 29.45 75.63 29.45C73.63 29.45 72.13 29.48 71.13 29.54C70.09 29.6 68.41 29.75 66.09 29.99L64.68 30.17C64.38 30.21 64.11 30.13 63.87 29.93C63.65 29.71 63.54 29.42 63.54 29.06ZM66.69 32.87C66.69 32.57 66.78 32.32 66.96 32.12C67.16 31.92 67.41 31.81 67.71 31.79C68.57 31.77 69.61 31.76 70.83 31.76L74.34 31.7L78.72 31.64C79.94 31.64 80.55 32.16 80.55 33.2C80.55 33.44 80.52 33.67 80.46 33.89C80.24 35.01 80.05 35.76 79.89 36.14C79.97 36.28 80.01 36.43 80.01 36.59C80.01 36.91 79.89 37.17 79.65 37.37C79.43 37.57 79.12 37.67 78.72 37.67L73.41 37.73L69.87 37.85C69.89 38.13 69.95 38.37 70.05 38.57C70.15 38.77 70.31 38.98 70.53 39.2C70.73 39.38 71.01 39.53 71.37 39.65C71.73 39.77 72.08 39.84 72.42 39.86C72.92 39.88 73.62 39.87 74.52 39.83C75.42 39.79 76.04 39.73 76.38 39.65C76.7 39.61 76.97 39.69 77.19 39.89C77.43 40.11 77.55 40.39 77.55 40.73C77.55 41.27 77.22 41.63 76.56 41.81C76.52 41.83 76.11 41.87 75.33 41.93L74.52 42.02H72.36C71.66 41.98 71 41.83 70.38 41.57C69.76 41.33 69.25 41.01 68.85 40.61C68.41 40.17 68.09 39.74 67.89 39.32C67.69 38.88 67.59 38.4 67.59 37.88V37.79C67.41 37.71 67.26 37.59 67.14 37.43C67.04 37.25 66.99 37.05 66.99 36.83C66.99 36.55 67.08 36.31 67.26 36.11C67.46 35.91 67.7 35.8 67.98 35.78L70.68 35.69C72.14 35.69 74.19 35.66 76.83 35.6L77.79 35.54L78.15 33.77L72.12 33.86L69.6 33.89C69.16 33.91 68.56 33.92 67.8 33.92C67.48 33.92 67.21 33.83 66.99 33.65C66.79 33.45 66.69 33.19 66.69 32.87Z"
              fill="#29363D"
            />
            <path
              d="M121.337 21.32L119.567 21.35L118.097 21.38C117.937 22.54 117.857 23.55 117.857 24.41V25.85L117.677 29.18C121.777 28.74 124.777 28.32 126.677 27.92C126.997 27.86 127.287 27.94 127.547 28.16C127.807 28.38 127.937 28.65 127.937 28.97C127.937 29.21 127.857 29.43 127.697 29.63C127.557 29.83 127.367 29.96 127.127 30.02C125.587 30.28 124.167 30.51 122.867 30.71C121.587 30.91 119.987 31.13 118.067 31.37C117.667 31.41 117.387 31.43 117.227 31.43C116.667 31.43 116.257 31.31 115.997 31.07C115.737 30.81 115.607 30.4 115.607 29.84C115.607 28.16 115.667 26.34 115.787 24.38C115.787 23.46 115.857 22.44 115.997 21.32L115.637 21.29C115.337 21.25 115.107 21.13 114.947 20.93C114.787 20.71 114.707 20.45 114.707 20.15C114.707 19.83 114.827 19.57 115.067 19.37C115.327 19.15 115.607 19.06 115.907 19.1C116.487 19.16 117.197 19.19 118.037 19.19C118.697 19.19 119.217 19.18 119.597 19.16L121.397 19.13L125.537 19.04C125.837 19.04 126.087 19.15 126.287 19.37C126.507 19.59 126.627 19.86 126.647 20.18C126.647 20.5 126.537 20.76 126.317 20.96C126.117 21.14 125.857 21.23 125.537 21.23L121.337 21.32ZM122.837 39.53C122.737 39.23 122.687 38.9 122.687 38.54C122.687 37.76 122.917 36.9 123.377 35.96C123.517 35.64 123.737 35.26 124.037 34.82C124.357 34.36 124.697 33.93 125.057 33.53C125.397 33.17 125.777 32.91 126.197 32.75C126.637 32.57 127.057 32.48 127.457 32.48C127.857 32.48 128.247 32.54 128.627 32.66C129.027 32.78 129.487 33.01 130.007 33.35C130.487 33.63 130.917 34.01 131.297 34.49C131.677 34.97 131.947 35.49 132.107 36.05C132.187 36.41 132.227 36.72 132.227 36.98C132.227 37.88 131.957 38.73 131.417 39.53C130.917 40.31 130.257 40.92 129.437 41.36C128.617 41.8 127.757 42.02 126.857 42.02C125.957 42.02 125.127 41.81 124.367 41.39C123.607 40.99 123.097 40.37 122.837 39.53ZM125.507 39.59C125.847 39.83 126.277 39.95 126.797 39.95C127.097 39.95 127.417 39.9 127.757 39.8C128.157 39.68 128.487 39.52 128.747 39.32C129.007 39.12 129.307 38.82 129.647 38.42C129.987 38 130.157 37.47 130.157 36.83C130.157 36.69 130.137 36.52 130.097 36.32C130.017 36.04 129.847 35.78 129.587 35.54C129.347 35.28 129.057 35.06 128.717 34.88C128.537 34.78 128.357 34.72 128.177 34.7C127.997 34.66 127.777 34.65 127.517 34.67C127.317 34.69 127.047 34.81 126.707 35.03C126.367 35.25 126.017 35.66 125.657 36.26C125.157 37.06 124.907 37.77 124.907 38.39C124.907 38.95 125.107 39.35 125.507 39.59ZM130.097 23.93C130.097 21.45 130.127 19.7 130.187 18.68C130.207 18.42 130.317 18.2 130.517 18.02C130.737 17.82 130.987 17.72 131.267 17.72C131.627 17.72 131.897 17.8 132.077 17.96C132.277 18.12 132.377 18.41 132.377 18.83L132.347 19.85C132.307 20.41 132.287 20.9 132.287 21.32C132.227 22.24 132.197 23.18 132.197 24.14C133.517 23.3 134.667 22.7 135.647 22.34C135.807 22.3 135.947 22.28 136.067 22.28C136.507 22.28 136.827 22.46 137.027 22.82C137.087 22.96 137.117 23.11 137.117 23.27C137.117 23.47 137.047 23.67 136.907 23.87C136.787 24.07 136.607 24.23 136.367 24.35L134.357 25.16L132.227 26.09C132.267 27.85 132.337 29.35 132.437 30.59C132.477 30.97 132.397 31.27 132.197 31.49C132.017 31.69 131.727 31.79 131.327 31.79C131.067 31.79 130.837 31.72 130.637 31.58C130.437 31.42 130.327 31.21 130.307 30.95C130.207 29.85 130.157 28.89 130.157 28.07L130.097 25.79V23.93Z"
              fill="#29363D"
            />
            <path
              d="M164.001 31.64C163.661 31.64 163.381 31.52 163.161 31.28C162.941 31.02 162.871 30.72 162.951 30.38C162.991 29.96 163.251 29.12 163.731 27.86L163.971 27.17L165.321 23.45C165.561 22.75 165.901 21.83 166.341 20.69L167.271 18.77C167.511 18.49 167.831 18.33 168.231 18.29C168.491 18.29 168.691 18.35 168.831 18.47C169.111 18.69 169.251 19 169.251 19.4V19.55C169.251 19.71 169.211 19.86 169.131 20L168.891 20.54C168.991 20.64 169.071 20.77 169.131 20.93L169.641 21.95C170.501 23.67 171.151 24.91 171.591 25.67C172.031 26.43 172.691 27.46 173.571 28.76C173.831 29.14 173.961 29.5 173.961 29.84C173.961 30.16 173.821 30.41 173.541 30.59C173.341 30.73 173.151 30.8 172.971 30.8C172.571 30.8 172.201 30.57 171.861 30.11C171.241 29.21 170.601 28.18 169.941 27.02C169.261 25.88 168.541 24.51 167.781 22.91C167.501 23.61 167.051 24.89 166.431 26.75C166.351 27.03 166.211 27.45 166.011 28.01L165.081 30.68C165.001 30.98 164.861 31.22 164.661 31.4C164.461 31.56 164.241 31.64 164.001 31.64ZM164.241 36.29C164.161 36.13 164.121 35.97 164.121 35.81C164.121 35.43 164.301 35.13 164.661 34.91C164.881 34.79 165.081 34.73 165.261 34.73C165.641 34.73 165.961 34.9 166.221 35.24C166.561 35.7 166.991 36.15 167.511 36.59C168.031 37.01 168.581 37.37 169.161 37.67C171.221 38.71 173.961 39.2 177.381 39.14C178.241 39.1 179.291 38.99 180.531 38.81C180.911 38.77 181.221 38.85 181.461 39.05C181.701 39.25 181.821 39.55 181.821 39.95C181.821 40.53 181.411 40.89 180.591 41.03C179.071 41.21 177.831 41.3 176.871 41.3C175.211 41.3 173.631 41.17 172.131 40.91C170.651 40.65 169.391 40.27 168.351 39.77C167.311 39.27 166.481 38.76 165.861 38.24C165.241 37.72 164.701 37.07 164.241 36.29ZM178.671 25.79C178.671 24.67 178.691 23.37 178.731 21.89C178.771 20.39 178.811 19.32 178.851 18.68C178.871 18.42 178.981 18.2 179.181 18.02C179.381 17.82 179.631 17.72 179.931 17.72C180.311 17.72 180.591 17.81 180.771 17.99C180.971 18.17 181.051 18.48 181.011 18.92L180.921 21.11C180.861 22.33 180.831 23.5 180.831 24.62L180.861 25.37C180.861 25.79 180.871 26.04 180.891 26.12V27.56C180.911 29.48 180.981 31.01 181.101 32.15C181.141 32.51 181.061 32.8 180.861 33.02C180.661 33.24 180.371 33.35 179.991 33.35C179.731 33.35 179.501 33.27 179.301 33.11C179.121 32.93 179.011 32.72 178.971 32.48C178.771 31.08 178.671 28.85 178.671 25.79Z"
              fill="#29363D"
            />
            <path
              d="M217.706 28.19C218.806 28.11 219.646 27.78 220.226 27.2C220.806 26.6 221.096 25.85 221.096 24.95C221.096 24.09 220.806 23.36 220.226 22.76C219.666 22.16 218.886 21.86 217.886 21.86C216.986 21.86 216.236 22.17 215.636 22.79C215.036 23.39 214.736 24.11 214.736 24.95C214.736 25.87 215.016 26.65 215.576 27.29C216.156 27.93 216.866 28.23 217.706 28.19ZM210.356 35.54C210.356 34.98 210.726 34.64 211.466 34.52C212.566 34.36 214.036 34.21 215.876 34.07C217.716 33.93 219.596 33.82 221.516 33.74L223.946 33.68C224.926 33.68 225.906 33.71 226.886 33.77C226.866 33.21 226.856 32.39 226.856 31.31L226.976 23.78C226.976 21.62 226.996 20.12 227.036 19.28C227.056 19 227.166 18.77 227.366 18.59C227.586 18.41 227.836 18.32 228.116 18.32C228.416 18.32 228.676 18.43 228.896 18.65C229.116 18.87 229.226 19.14 229.226 19.46V20.24C229.186 21.24 229.166 22.44 229.166 23.84C229.146 24.14 229.136 24.73 229.136 25.61C229.136 26.57 229.126 27.28 229.106 27.74L229.046 31.37C229.026 32.49 229.036 34.02 229.076 35.96C229.136 37.88 229.206 39.27 229.286 40.13C229.326 40.49 229.246 40.78 229.046 41C228.846 41.22 228.556 41.33 228.176 41.33C227.936 41.33 227.716 41.24 227.516 41.06C227.316 40.9 227.196 40.7 227.156 40.46C227.036 39.5 226.956 37.93 226.916 35.75H225.506C224.226 35.75 222.636 35.8 220.736 35.9C215.896 36.14 212.816 36.36 211.496 36.56C210.736 36.66 210.356 36.32 210.356 35.54ZM212.486 24.89C212.486 24.11 212.636 23.39 212.936 22.73C213.236 22.07 213.746 21.43 214.466 20.81C214.946 20.41 215.456 20.13 215.996 19.97C216.556 19.79 217.186 19.7 217.886 19.7C218.746 19.7 219.536 19.86 220.256 20.18C220.996 20.5 221.656 21.06 222.236 21.86C222.516 22.2 222.736 22.65 222.896 23.21C223.076 23.75 223.166 24.28 223.166 24.8C223.166 25.54 223.046 26.26 222.806 26.96C222.406 28.04 221.736 28.86 220.796 29.42C219.856 29.96 218.866 30.23 217.826 30.23C216.426 30.23 215.246 29.81 214.286 28.97C213.726 28.61 213.286 28.03 212.966 27.23C212.646 26.43 212.486 25.65 212.486 24.89Z"
              fill="#29363D"
            />
          </g>
          <g>
            <path
              d="M194.736 99.9675C194.526 99.705 194.145 99.555 193.845 99.42C193.531 99.2775 193.202 99.165 192.888 99.015C192.521 98.835 192.199 98.595 191.84 98.4075C191.638 99.135 191.75 99.8325 191.758 100.59C191.765 101.25 191.728 101.925 191.848 102.57C192.267 102.39 192.678 102.158 193.06 101.91C193.613 101.558 194.294 101.13 194.631 100.538C194.713 100.403 194.863 100.133 194.736 99.9675ZM207.163 84.255C206.004 80.985 202.839 78.8175 199.382 78.7725C198.439 78.7575 197.489 78.8625 196.591 79.185C195.634 79.5375 194.758 80.0625 193.965 80.7C193.247 81.2775 192.566 81.945 191.96 82.635C191.571 83.0775 191.1 83.655 191.032 84.2625C190.853 84.75 190.815 85.275 190.778 85.8C190.651 86.55 190.561 87.315 190.494 88.0725C190.404 89.0925 190.381 90.1275 190.561 91.14C190.725 92.0775 191.092 93.0225 191.736 93.735C192.514 94.5825 193.561 95.145 194.661 95.46C195.693 95.76 196.756 95.895 197.826 95.9625C198.858 96.03 199.906 96.1125 200.931 96.0675C202.914 95.985 204.934 95.385 206.28 93.84C208.525 91.2825 208.226 87.255 207.163 84.255ZM197.759 85.7025C197.429 86.2875 196.861 86.79 196.202 86.9625C195.454 87.1575 194.878 86.715 194.601 86.0325C194.489 85.74 194.766 85.5225 195.028 85.5375C195.043 85.5375 195.05 85.5375 195.065 85.5375C195.215 85.5525 195.312 85.68 195.349 85.815C195.349 85.8 195.342 85.785 195.342 85.77C195.387 85.8375 195.409 85.905 195.409 85.9725C195.821 86.58 196.636 86.025 197.01 85.4925C197.048 85.35 197.13 85.245 197.302 85.1775C197.601 85.0575 197.923 85.425 197.759 85.7025ZM202.128 90.93C201.941 91.6425 201.537 92.5725 200.729 92.7525C199.838 92.9475 198.911 92.4825 198.641 91.5825C198.507 91.1175 199.21 90.87 199.345 91.335C199.502 91.86 200.123 92.25 200.654 91.9875C201.081 91.77 201.283 91.2225 201.395 90.7875C201.514 90.3225 202.255 90.465 202.128 90.93ZM204.447 84.855C204.245 85.4625 203.991 86.115 203.325 86.3175C202.607 86.535 201.821 86.01 201.559 85.3575C201.38 84.9075 202.083 84.66 202.263 85.11C202.39 85.4175 202.891 85.7925 203.228 85.5525C203.392 85.4325 203.497 85.26 203.579 85.0725C203.52 84.9525 203.52 84.81 203.647 84.69C203.699 84.6375 203.744 84.5925 203.796 84.54C204.036 84.3075 204.582 84.4725 204.447 84.855ZM203.639 100.718C203.594 100.343 203.235 100.388 202.936 100.425C202.472 100.485 202.053 100.545 201.589 100.53C201.006 100.515 200.422 100.493 199.846 100.53C200.033 101.003 200.377 101.393 200.691 101.775C201.021 102.173 201.29 102.623 201.612 103.02C201.776 103.215 202.158 103.695 202.435 103.395C202.742 103.058 202.921 102.563 203.123 102.15C203.318 101.76 203.692 101.175 203.639 100.718ZM192.035 76.995C191.923 76.92 191.803 76.8525 191.691 76.785C191.062 76.44 190.404 76.0875 189.693 75.945C189.364 75.8775 188.967 75.8025 188.631 75.855C188.586 75.8625 188.556 75.885 188.548 75.8925C188.548 75.915 188.548 75.945 188.548 75.9675C188.601 76.3425 188.825 76.7025 188.997 77.0325C189.326 77.67 189.618 78.7425 190.284 79.17C190.381 78.885 190.583 78.615 190.763 78.405C191.077 78.03 191.414 77.67 191.773 77.34C191.878 77.25 191.982 77.16 192.072 77.055C192.08 77.0475 192.08 77.0475 192.087 77.04C192.072 77.025 192.05 77.01 192.035 76.995ZM198.843 72.3075C198.716 72.03 198.582 71.6625 198.327 71.475C198.14 71.3325 197.961 71.5575 197.856 71.6925C197.452 72.2325 197.16 72.915 196.973 73.56C196.883 73.875 196.778 74.22 196.778 74.55C196.778 74.6025 196.778 74.655 196.786 74.7C196.831 74.6775 196.883 74.6625 196.943 74.6625C197.586 74.655 198.222 74.565 198.858 74.595C199.27 74.6175 199.704 74.655 200.108 74.58C199.711 73.815 199.203 73.11 198.843 72.3075ZM207.695 73.7925C207.111 73.875 206.535 74.0475 205.989 74.2575C205.405 74.475 204.762 74.7225 204.283 75.15C204.403 75.2475 204.522 75.36 204.619 75.435C204.851 75.615 205.068 75.8025 205.293 75.99C205.592 76.245 205.906 76.5 206.191 76.77C206.333 76.905 206.49 77.055 206.595 77.2275C206.797 77.07 207.036 77.0025 207.246 76.83C207.493 76.6275 207.567 76.1175 207.62 75.825C207.762 75.1725 207.829 74.46 207.695 73.7925ZM187.718 94.3125C187.553 94.0725 187.366 93.84 187.194 93.6C186.962 93.2925 186.708 92.9475 186.58 92.5725C186.019 92.7375 185.772 93.6525 185.473 94.095C185.256 94.4175 185.032 94.7325 184.845 95.07C184.717 95.3025 184.538 95.58 184.553 95.85C184.56 96 184.867 96.03 185.054 96.03C185.346 96.03 185.645 96 185.93 95.9475C186.67 95.805 187.239 95.2425 187.935 94.9575C187.935 94.9125 187.942 94.86 187.957 94.8075C188.01 94.695 187.785 94.4025 187.718 94.3125ZM186.565 84.3225C186.356 83.985 185.81 84.2325 185.533 84.3375C185.159 84.48 184.792 84.66 184.411 84.78C184.059 84.8925 183.685 84.9525 183.341 85.08C183.229 85.125 183.079 85.17 182.997 85.26C182.997 85.2675 183.004 85.2675 183.004 85.275C183.071 85.38 183.154 85.485 183.251 85.5675C183.565 85.86 186.109 87.825 186.319 87.4125C186.513 87.0375 186.491 86.55 186.528 86.1375C186.58 85.575 186.64 85.0125 186.73 84.4575C186.663 84.435 186.61 84.39 186.565 84.3225ZM209.932 98.34C209.857 97.995 209.857 97.695 209.857 97.3425C209.857 97.0425 209.902 96.6375 209.782 96.3525C209.79 96.3675 209.767 96.345 209.737 96.3525C209.67 96.36 209.602 96.3825 209.543 96.4125C209.094 96.6225 208.727 97.0575 208.42 97.425C208.278 97.5975 208.136 97.7775 208.009 97.965C207.979 98.01 207.941 98.0625 207.919 98.115C207.912 98.16 207.897 98.1975 207.882 98.235C208.203 98.5275 208.548 98.805 208.914 99.03C209.288 99.2625 209.715 99.5025 210.164 99.5625C210.126 99.15 210.014 98.745 209.932 98.34ZM212.079 81.0225C211.615 81.06 210.882 80.88 210.508 81.2025C210.455 81.2475 210.403 81.27 210.351 81.285C210.605 81.735 210.8 82.23 210.987 82.71C211.054 82.8825 211.174 83.1075 211.234 83.3325C211.278 83.3625 211.323 83.4 211.353 83.46C211.428 83.5875 211.623 84.2325 211.772 84.27C211.75 84.2475 211.884 84.1575 211.914 84.12C211.974 84.0525 212.034 83.9775 212.079 83.9025C212.169 83.7675 212.251 83.625 212.318 83.4825C212.558 83.0025 212.939 82.59 213.194 82.11C213.396 81.7275 213.56 81.345 213.665 80.9325C213.156 80.8275 212.58 80.985 212.079 81.0225ZM213.299 90.375C213.126 90.4275 212.932 90.3825 212.857 90.2175C212.73 90.9525 212.513 91.6125 212.236 92.3175C212.169 92.49 211.952 92.9325 212.079 93.1125C212.161 93.2325 212.326 93.285 212.461 93.315C213.007 93.4425 213.575 93.45 214.129 93.4875C214.376 93.5025 214.638 93.5175 214.885 93.5625C214.75 92.3775 214.196 91.1475 213.299 90.375Z"
              fill="#FEBF10"
            />
            <path
              d="M208.33 73.26C208.278 73.1025 208.113 72.9975 207.949 73.0125C207.163 73.0725 206.377 73.3125 205.644 73.5825C204.941 73.845 204.208 74.1825 203.654 74.7075C203.534 74.82 203.519 74.9475 203.572 75.06C203.474 75.1725 203.445 75.3375 203.534 75.5175C203.549 75.54 203.564 75.555 203.579 75.5775C203.647 75.6225 203.706 75.6675 203.774 75.7125C203.893 75.8025 204.013 75.8925 204.133 75.9825C204.327 76.125 204.507 76.275 204.687 76.4325C204.933 76.65 205.195 76.8675 205.442 77.085C205.51 77.145 205.614 77.2275 205.704 77.3175C206.048 77.5425 206.385 77.775 206.699 78.0375C206.796 78.045 206.901 78.0075 206.976 77.9025C207.2 77.61 207.605 77.535 207.866 77.2725C208.151 76.98 208.248 76.455 208.338 76.0725C208.555 75.18 208.607 74.1525 208.33 73.26ZM207.634 75.8325C207.575 76.125 207.507 76.635 207.26 76.8375C207.051 77.01 206.811 77.0775 206.609 77.235C206.505 77.0625 206.348 76.9125 206.205 76.7775C205.921 76.5 205.607 76.2525 205.308 75.9975C205.083 75.8025 204.866 75.615 204.634 75.4425C204.529 75.3675 204.417 75.255 204.297 75.1575C204.769 74.7375 205.42 74.4825 206.003 74.265C206.55 74.0625 207.126 73.8825 207.709 73.8C207.829 74.46 207.762 75.1725 207.634 75.8325ZM188.106 93.9225C187.755 93.4275 187.403 92.9325 187.096 92.4075C186.962 92.2125 186.827 92.0175 186.7 91.815C186.67 91.83 186.64 91.8525 186.61 91.875C186.543 91.845 186.46 91.8375 186.371 91.8525C185.54 92.0325 185.256 93.0675 184.844 93.69C184.403 94.365 183.752 95.115 183.804 95.97C183.857 96.8175 185.001 96.81 185.6 96.75C185.989 96.7125 186.371 96.6375 186.722 96.4725C187.254 96.225 187.71 95.835 188.264 95.6325C188.428 95.5725 188.496 95.445 188.503 95.31C188.555 95.2725 188.593 95.22 188.623 95.145C188.66 95.0475 188.675 94.95 188.683 94.8525C188.496 94.545 188.316 94.215 188.106 93.9225ZM187.964 94.8225C187.949 94.875 187.934 94.92 187.942 94.9725C187.254 95.25 186.677 95.82 185.937 95.9625C185.645 96.015 185.353 96.045 185.061 96.045C184.874 96.045 184.568 96.015 184.56 95.865C184.545 95.595 184.725 95.31 184.852 95.085C185.039 94.7475 185.263 94.4325 185.48 94.11C185.78 93.6675 186.027 92.7525 186.588 92.5875C186.715 92.9625 186.969 93.3 187.201 93.615C187.381 93.8475 187.56 94.08 187.725 94.3275C187.785 94.4025 188.009 94.695 187.964 94.8225ZM191.563 75.87C190.718 75.4275 189.887 75.1875 188.937 75.1125C188.436 75.0675 187.852 75.2325 187.8 75.8175C187.755 76.3275 188.047 76.83 188.271 77.265C188.772 78.2325 189.146 79.53 190.224 79.98C190.583 79.56 191.002 79.1925 191.399 78.8175C191.563 78.6225 191.743 78.4425 191.915 78.2625C192.237 77.925 192.865 77.55 192.865 77.025C192.88 76.4175 191.982 76.0875 191.563 75.87ZM192.072 77.055C191.982 77.16 191.877 77.25 191.773 77.34C191.414 77.6625 191.077 78.03 190.763 78.405C190.583 78.615 190.381 78.885 190.284 79.17C189.618 78.7425 189.326 77.67 188.997 77.0325C188.825 76.7025 188.593 76.3425 188.548 75.9675C188.548 75.945 188.548 75.915 188.548 75.8925C188.563 75.885 188.585 75.8625 188.63 75.855C188.967 75.8025 189.363 75.8775 189.693 75.945C190.403 76.0875 191.054 76.44 191.69 76.785C191.81 76.8525 191.93 76.9125 192.035 76.995C192.049 77.01 192.072 77.025 192.087 77.04C192.079 77.0475 192.079 77.055 192.072 77.055ZM200.998 74.685C200.691 74.01 200.272 73.4025 199.898 72.765C199.674 72.375 199.517 71.9475 199.307 71.5425C199.105 71.1525 198.821 70.8 198.387 70.695C197.983 70.5975 197.579 70.86 197.332 71.1525C196.771 71.8275 196.426 72.735 196.195 73.5675C196.06 74.0475 195.91 74.805 196.18 75.3C196.703 75.2475 197.279 75.3375 197.773 75.36C197.841 75.36 197.915 75.3675 197.983 75.3675C198.334 75.345 198.686 75.3375 199.045 75.3525C199.629 75.3825 200.22 75.4125 200.766 75.165C200.938 75.09 201.088 74.8875 200.998 74.685ZM198.866 74.595C198.222 74.565 197.586 74.655 196.95 74.6625C196.89 74.6625 196.838 74.6775 196.793 74.7C196.793 74.6475 196.786 74.6025 196.786 74.55C196.786 74.22 196.883 73.875 196.98 73.56C197.167 72.915 197.459 72.2325 197.863 71.6925C197.968 71.5575 198.14 71.3325 198.334 71.475C198.589 71.6625 198.723 72.03 198.851 72.3075C199.202 73.11 199.719 73.815 200.123 74.58C199.711 74.6625 199.277 74.6175 198.866 74.595ZM187.022 83.7C186.296 82.9725 184.934 83.7975 184.156 84.075C183.43 84.33 181.657 84.57 182.413 85.7625C182.607 86.07 182.929 86.31 183.213 86.52C183.595 86.7975 183.976 87.075 184.366 87.345C184.942 87.75 185.735 88.41 186.49 88.1775C187.037 88.0125 187.141 87.3075 187.194 86.8275C187.291 85.9125 187.358 84.9975 187.53 84.0975C187.605 83.775 187.269 83.61 187.022 83.7ZM186.52 86.145C186.483 86.5575 186.498 87.045 186.311 87.42C186.101 87.8325 183.557 85.8675 183.243 85.575C183.146 85.485 183.071 85.3875 182.996 85.2825C182.996 85.275 182.989 85.275 182.989 85.2675C183.071 85.17 183.221 85.125 183.333 85.0875C183.685 84.96 184.051 84.9 184.403 84.7875C184.785 84.66 185.151 84.4875 185.525 84.345C185.81 84.24 186.356 83.9925 186.558 84.33C186.603 84.3975 186.655 84.4425 186.715 84.4725C186.633 85.02 186.573 85.5825 186.52 86.145ZM214.802 91.065C214.548 90.615 214.219 90.195 213.837 89.8425C213.672 89.6925 213.411 89.43 213.164 89.5275C213.021 89.5875 212.939 89.67 212.894 89.775C212.79 89.445 212.236 89.3925 212.176 89.8125C212.109 90.2925 212.026 90.7725 211.877 91.2375C211.75 91.6275 211.555 91.9875 211.428 92.3775C211.241 92.9775 211.293 93.5625 211.877 93.885C212.371 94.1625 213.029 94.1625 213.583 94.1925C214.069 94.2225 214.705 94.1775 215.146 94.4175C215.408 94.5675 215.693 94.32 215.685 94.05C215.67 93.0075 215.318 91.9725 214.802 91.065ZM214.136 93.48C213.575 93.4425 213.014 93.435 212.468 93.3075C212.333 93.2775 212.169 93.225 212.086 93.105C211.959 92.925 212.176 92.4825 212.243 92.31C212.52 91.6125 212.737 90.945 212.864 90.21C212.932 90.375 213.134 90.4275 213.306 90.3675C214.196 91.14 214.75 92.37 214.899 93.5475C214.645 93.51 214.383 93.5025 214.136 93.48ZM214.278 80.325C213.545 80.0325 212.782 80.1975 212.019 80.2725C211.39 80.3325 210.612 80.13 210.081 80.58C209.931 80.7075 209.916 80.8875 209.969 81.0375C209.737 81.075 209.52 81.3525 209.677 81.6225C209.864 81.945 209.999 82.305 210.148 82.65C210.231 82.8375 210.306 83.025 210.38 83.22C210.433 83.3175 210.478 83.415 210.53 83.5125C210.537 83.4975 210.545 83.49 210.552 83.475C210.545 83.4975 210.545 83.52 210.545 83.535C210.605 83.6625 210.665 83.79 210.724 83.925C210.747 83.94 210.762 83.9475 210.784 83.955C210.986 84.33 211.076 84.7275 211.488 84.945C211.959 85.2 212.408 84.7275 212.655 84.3825C212.992 83.91 213.298 83.3925 213.605 82.8975C214.017 82.2375 214.353 81.51 214.48 80.73C214.503 80.58 214.436 80.385 214.278 80.325ZM213.201 82.1025C212.947 82.5825 212.573 82.995 212.326 83.475C212.251 83.6175 212.169 83.76 212.086 83.895C212.034 83.97 211.981 84.045 211.922 84.1125C211.884 84.1575 211.75 84.2475 211.779 84.2625C211.622 84.2175 211.435 83.5725 211.36 83.4525C211.323 83.3925 211.286 83.355 211.241 83.325C211.188 83.1 211.069 82.875 210.994 82.7025C210.799 82.2225 210.605 81.7275 210.358 81.2775C210.41 81.27 210.463 81.24 210.515 81.195C210.897 80.8725 211.622 81.0525 212.086 81.015C212.595 80.9775 213.164 80.82 213.68 80.9175C213.568 81.3375 213.403 81.72 213.201 82.1025ZM210.68 98.31C210.575 97.8375 210.612 97.395 210.597 96.915C210.59 96.5475 210.567 96.06 210.276 95.7975C210.044 95.58 209.722 95.58 209.43 95.6475C208.809 95.7975 208.285 96.4125 207.889 96.8775C207.694 97.1025 207.186 97.605 207.148 97.995C206.998 98.13 206.939 98.3775 207.126 98.565C207.971 99.405 209.273 100.448 210.545 100.305C210.695 100.29 210.874 100.17 210.882 100.005C210.927 99.42 210.814 98.88 210.68 98.31ZM208.899 99.03C208.532 98.805 208.181 98.5275 207.866 98.235C207.889 98.1975 207.904 98.16 207.904 98.115C207.934 98.0625 207.964 98.01 207.994 97.965C208.121 97.7775 208.263 97.605 208.405 97.425C208.712 97.05 209.086 96.6225 209.527 96.4125C209.587 96.3825 209.655 96.36 209.722 96.3525C209.752 96.3525 209.774 96.3675 209.767 96.3525C209.894 96.6375 209.849 97.0425 209.842 97.3425C209.834 97.6875 209.842 97.995 209.916 98.34C209.999 98.745 210.118 99.1425 210.141 99.555C209.707 99.5025 209.28 99.2625 208.899 99.03ZM203.587 99.69C203.138 99.5625 202.629 99.7125 202.18 99.78C201.784 99.8325 201.35 99.7725 200.953 99.765C200.519 99.75 200.078 99.7575 199.644 99.795C199.397 99.8175 199.292 100.02 199.314 100.208C199.15 100.275 199.023 100.448 199.098 100.665C199.314 101.325 199.793 101.858 200.227 102.383C200.624 102.87 200.923 103.433 201.38 103.868C201.739 104.198 202.277 104.385 202.719 104.115C203.25 103.793 203.467 103.125 203.736 102.593C204.17 101.753 204.971 100.08 203.587 99.69ZM203.123 102.15C202.921 102.563 202.741 103.058 202.434 103.395C202.158 103.695 201.776 103.223 201.611 103.02C201.282 102.615 201.02 102.173 200.691 101.775C200.377 101.393 200.033 100.995 199.846 100.53C200.429 100.493 201.013 100.515 201.589 100.53C202.06 100.545 202.479 100.485 202.936 100.425C203.235 100.388 203.594 100.343 203.639 100.718C203.691 101.175 203.317 101.76 203.123 102.15ZM195.476 99.795C195.386 99.4275 194.982 99.18 194.676 99.0075C194.294 98.7825 193.868 98.625 193.456 98.46C192.932 98.2425 192.491 97.8825 191.975 97.6575C191.87 97.6125 191.773 97.6125 191.69 97.65C191.526 97.575 191.331 97.6125 191.241 97.83C190.912 98.7 190.942 99.5175 190.995 100.433C191.047 101.37 190.942 102.308 191.226 103.223C191.286 103.418 191.518 103.515 191.705 103.455C192.379 103.223 193.022 102.855 193.621 102.465C194.287 102.038 194.99 101.498 195.357 100.778C195.521 100.455 195.551 100.125 195.476 99.795ZM194.631 100.553C194.294 101.145 193.621 101.573 193.06 101.925C192.678 102.173 192.266 102.398 191.847 102.585C191.728 101.933 191.765 101.258 191.758 100.605C191.743 99.8475 191.638 99.1425 191.84 98.4225C192.199 98.61 192.528 98.85 192.887 99.03C193.202 99.18 193.531 99.2925 193.845 99.435C194.144 99.57 194.526 99.7125 194.736 99.9825C194.863 100.133 194.713 100.403 194.631 100.553ZM197.302 85.185C197.13 85.26 197.047 85.3575 197.01 85.5C196.636 86.025 195.82 86.58 195.409 85.98C195.409 85.9125 195.386 85.845 195.342 85.7775C195.342 85.7925 195.349 85.8075 195.349 85.8225C195.312 85.6875 195.207 85.56 195.065 85.545C195.05 85.545 195.042 85.545 195.027 85.545C194.765 85.5225 194.489 85.7475 194.601 86.04C194.87 86.7225 195.446 87.1575 196.202 86.97C196.86 86.805 197.429 86.295 197.758 85.71C197.923 85.425 197.601 85.0575 197.302 85.185ZM203.804 84.54C203.751 84.5925 203.706 84.6375 203.654 84.69C203.527 84.8175 203.527 84.96 203.587 85.0725C203.504 85.26 203.4 85.44 203.235 85.5525C202.898 85.7925 202.397 85.4175 202.27 85.11C202.09 84.66 201.38 84.9075 201.567 85.3575C201.828 86.0175 202.614 86.5425 203.332 86.3175C203.998 86.115 204.253 85.455 204.455 84.855C204.582 84.4725 204.036 84.3075 203.804 84.54ZM201.394 90.7875C201.282 91.2225 201.08 91.77 200.654 91.9875C200.123 92.25 199.502 91.86 199.344 91.335C199.21 90.87 198.499 91.1175 198.641 91.5825C198.91 92.4825 199.838 92.9475 200.729 92.7525C201.537 92.5725 201.941 91.6425 202.128 90.93C202.255 90.465 201.514 90.3225 201.394 90.7875Z"
              fill="#29363D"
            />
            <path
              d="M208.136 84.885C207.68 83.22 206.886 81.7425 205.637 80.5425C203.385 78.3675 199.928 77.5275 196.92 78.3C195.132 78.7575 193.591 79.92 192.312 81.2025C191.459 82.05 190.187 83.2425 190.284 84.555C190.269 84.585 190.262 84.6075 190.254 84.645C189.895 86.235 189.7 87.93 189.693 89.5575C189.693 91.05 189.985 92.58 190.853 93.8175C191.9 95.3025 193.681 96.06 195.402 96.42C196.434 96.6375 197.497 96.705 198.544 96.75C199.569 96.8025 200.587 96.8625 201.612 96.78C203.557 96.615 205.435 95.865 206.782 94.4175C207.919 93.195 208.473 91.545 208.637 89.91C208.809 88.215 208.577 86.5125 208.136 84.885ZM206.288 93.84C204.941 95.385 202.921 95.985 200.938 96.0675C199.906 96.1125 198.858 96.03 197.833 95.9625C196.763 95.895 195.701 95.76 194.668 95.46C193.569 95.145 192.521 94.5825 191.743 93.735C191.092 93.0225 190.733 92.0775 190.568 91.14C190.389 90.1275 190.411 89.0925 190.501 88.0725C190.568 87.3225 190.658 86.5575 190.785 85.8C190.823 85.275 190.86 84.75 191.04 84.2625C191.107 83.655 191.578 83.0775 191.967 82.635C192.573 81.9375 193.254 81.2775 193.973 80.7C194.766 80.0625 195.641 79.53 196.599 79.185C197.489 78.855 198.439 78.7575 199.39 78.7725C202.839 78.8175 206.011 80.9775 207.171 84.255C208.226 87.255 208.525 91.2825 206.288 93.84Z"
              fill="black"
            />
          
            <animateTransform
            additive="sum"
              attributeName="transform"
              attributeType="XML"
              type="rotate scale"
              from="0 200 90"
              to="360 200 90"
              dur="6s"
              repeatCount="indefinite"
            />
          </g>
          <defs>
            <clipPath id="clip0_75712_5642">
              <rect width="249" height="120" fill="white" />
            </clipPath>
          </defs>
        </svg>