<svg width="276" height="236" viewBox="0 0 276 236" fill="none" xmlns="http://www.w3.org/2000/svg">
<path d="M138 2.82532H266.091C269.61 2.82532 271.721 4.15323 272.819 6.8938C273.1 7.83639 273.21 8.82221 273.143 9.80389V188.323C273.143 193.846 270.919 196.064 265.387 196.064H10.557C9.46323 196.112 8.36834 196.002 7.30543 195.739C6.02776 195.386 4.90141 194.62 4.10013 193.561C3.29884 192.501 2.8671 191.207 2.87149 189.876C2.87149 189.354 2.87149 188.831 2.87149 188.308V10.5102C2.87149 4.97257 4.9829 2.82532 10.4584 2.82532H138ZM137.887 178.999H253.788C256.35 178.999 256.35 178.999 256.35 176.484C256.35 125.176 256.35 73.8495 256.35 22.5037C256.35 19.9327 256.35 19.9186 253.816 19.9186H22.2117C19.6499 19.9186 19.6358 19.9186 19.6358 22.4614V176.442C19.6358 178.985 19.6358 178.999 22.1836 178.999H137.887Z" stroke="#29363D" stroke-width="2" stroke-miterlimit="10"/>
<path d="M138 233.175H74.8977C71.9559 233.175 71.6885 232.921 71.7026 229.897C71.6441 227.876 71.691 225.853 71.8433 223.837C72.115 220.456 73.6614 217.307 76.1671 215.031C78.6728 212.755 81.9492 211.524 85.328 211.589C89.6352 211.589 93.9566 211.589 98.2779 211.589H190.081C196.626 211.589 201.792 215.149 203.551 220.941C204.607 224.43 204.283 228.004 204.171 231.607C204.174 231.827 204.131 232.046 204.043 232.248C203.956 232.45 203.827 232.631 203.665 232.779C203.502 232.928 203.31 233.04 203.101 233.108C202.893 233.176 202.672 233.199 202.453 233.175H138Z" stroke="#29363D" stroke-width="2" stroke-miterlimit="10"/>
<path d="M216.093 108.377H223.341V116.265H216.093H215.093V117.265V132.2H206.48V117.322V116.322H205.48H175.428V107.771C180.505 101.12 185.498 94.428 190.41 87.6943C195.282 81.0147 200.236 74.3712 205.27 67.7638L215.093 67.7884V107.377V108.377H216.093ZM205.48 108.56H206.48V107.56V87.0484V87.0461V87.0437V87.0413V87.0389V87.0365V87.0341V87.0316V87.0292V87.0268V87.0243V87.0219V87.0194V87.017V87.0145V87.012V87.0095V87.007V87.0045V87.002V86.9995V86.9969V86.9944V86.9919V86.9893V86.9868V86.9842V86.9816V86.979V86.9765V86.9739V86.9713V86.9686V86.966V86.9634V86.9608V86.9581V86.9555V86.9528V86.9502V86.9475V86.9448V86.9421V86.9394V86.9367V86.934V86.9313V86.9286V86.9258V86.9231V86.9204V86.9176V86.9149V86.9121V86.9093V86.9065V86.9037V86.9009V86.8981V86.8953V86.8925V86.8897V86.8868V86.884V86.8811V86.8783V86.8754V86.8725V86.8696V86.8668V86.8639V86.861V86.858V86.8551V86.8522V86.8493V86.8463V86.8434V86.8404V86.8374V86.8345V86.8315V86.8285V86.8255V86.8225V86.8195V86.8165V86.8134V86.8104V86.8074V86.8043V86.8013V86.7982V86.7951V86.7921V86.789V86.7859V86.7828V86.7797V86.7766V86.7734V86.7703V86.7672V86.764V86.7609V86.7577V86.7545V86.7514V86.7482V86.745V86.7418V86.7386V86.7354V86.7321V86.7289V86.7257V86.7224V86.7192V86.7159V86.7127V86.7094V86.7061V86.7028V86.6995V86.6962V86.6929V86.6896V86.6862V86.6829V86.6796V86.6762V86.6729V86.6695V86.6661V86.6627V86.6594V86.656V86.6526V86.6491V86.6457V86.6423V86.6389V86.6354V86.632V86.6285V86.6251V86.6216V86.6181V86.6146V86.6111V86.6076V86.6041V86.6006V86.5971V86.5936V86.59V86.5865V86.5829V86.5794V86.5758V86.5722V86.5686V86.565V86.5614V86.5578V86.5542V86.5506V86.547V86.5433V86.5397V86.536V86.5324V86.5287V86.525V86.5214V86.5177V86.514V86.5103V86.5066V86.5028V86.4991V86.4954V86.4916V86.4879V86.4841V86.4804V86.4766V86.4728V86.469V86.4652V86.4614V86.4576V86.4538V86.45V86.4461V86.4423V86.4384V86.4346V86.4307V86.4269V86.423V86.4191V86.4152V86.4113V86.4074V86.4035V86.3996V86.3956V86.3917V86.3877V86.3838V86.3798V86.3759V86.3719V86.3679V86.3639V86.3599V86.3559V86.3519V86.3479V86.3438V86.3398V86.3358V86.3317V86.3276V86.3236V86.3195V86.3154V86.3113V86.3072V86.3031V86.299V86.2949V86.2908V86.2866V86.2825V86.2784V86.2742V86.27V86.2659V86.2617V86.2575V86.2533V86.2491V86.2449V86.2407V86.2364V86.2322V86.228V86.2237V86.2195V86.2152V86.2109V86.2067V86.2024V86.1981V86.1938V86.1895V86.1852V86.1808V86.1765V86.1722V86.1678V86.1635V86.1591V86.1547V86.1504V86.146V86.1416V86.1372V86.1328V86.1284V86.1239V86.1195V86.1151V86.1106V86.1062V86.1017V86.0973V86.0928V86.0883V86.0838V86.0793V86.0748V86.0703V86.0658V86.0613V86.0567V86.0522V86.0476V86.0431V86.0385V86.0339V86.0294V86.0248V86.0202V86.0156V86.011V86.0063V86.0017V85.9971V85.9924V85.9878V85.9831V85.9785V85.9738V85.9691V85.9645V85.9598V85.9551V85.9503V85.9456V85.9409V85.9362V85.9314V85.9267V85.9219V85.9172V85.9124V85.9076V85.9029V85.8981V85.8933V85.8885V85.8836V85.8788V85.874V85.8692V85.8643V85.8595V85.8546V85.8497V85.8449V85.84V85.8351V85.8302V85.8253V85.8204V85.8155V85.8105V85.8056V85.8007V85.7957V85.7908V85.7858V85.7808V85.7758V85.7709V85.7659V85.7609V85.7558V85.7508V85.7458V85.7408V85.7357V85.7307V85.7256V85.7206V85.7155V85.7104V85.7053V85.7002V85.6951V85.69V85.6849V85.6798V85.6747V85.6695V85.6644V85.6592V85.6541V85.6489V85.6437V85.6385V85.6334V85.6282V85.623V85.6177V85.6125V85.6073V85.6021V85.5968V85.5916V85.5863V85.581V85.5758V85.5705V85.5652V85.5599V85.5546V85.5493V85.544V85.5386V85.5333V85.528V85.5226V85.5173V85.5119V85.5065V85.5011V85.4957V85.4904V85.485V85.4795V85.4741V85.4687V85.4633V85.4578V85.4524V85.4469V85.4415V85.436V85.4305V85.425V85.4195V85.414V85.4085V85.403V85.3975V85.392V85.3864V85.3809V85.3753V85.3698V85.3642V85.3586V85.353V85.3475V85.3419V85.3362V85.3306V85.325V85.3194V85.3138V85.3081V85.3025V85.2968V85.2911V85.2855V85.2798V85.2741V85.2684V85.2627V85.257V85.2513V85.2455V85.2398V85.2341V85.2283V85.2226V85.2168V85.211V85.2052V85.1995V85.1937V85.1879V85.182V85.1762V85.1704V85.1646V85.1587V85.1529V85.147V85.1412V85.1353V85.1294V85.1235V85.1176V85.1117V85.1058V85.0999V85.094V85.0881V85.0821V85.0762V85.0702V85.0643V85.0583V85.0523V85.0463V85.0404V85.0344V85.0284V85.0223V85.0163V85.0103V85.0043V84.9982V84.9922V84.9861V84.98V84.974V84.9679V84.9618V84.9557V84.9496V84.9435V84.9374V84.9312V84.9251V84.919V84.9128V84.9067V84.9005V84.8943V84.8881V84.882V84.8758V84.8696V84.8634V84.8571V84.8509V84.8447C206.48 83.8068 206.521 82.715 206.604 81.5688L206.852 78.1336L204.803 80.9016L185.505 106.965L184.324 108.56H186.308H205.48Z" fill="#FEBF10" stroke="#29363D" stroke-width="2"/>

<g>
<path d="M127.843 125.146C127.438 124.64 126.701 124.351 126.123 124.091C125.516 123.816 124.88 123.599 124.273 123.31C123.565 122.963 122.943 122.501 122.25 122.139C121.859 123.541 122.076 124.886 122.091 126.345C122.105 127.617 122.033 128.918 122.264 130.161C123.073 129.814 123.868 129.366 124.605 128.889C125.675 128.21 126.99 127.386 127.641 126.244C127.8 125.984 128.089 125.464 127.843 125.146ZM151.85 94.8664C149.609 88.5648 143.496 84.3878 136.818 84.3011C134.997 84.2722 133.162 84.4746 131.427 85.0961C129.577 85.7753 127.886 86.7871 126.354 88.0156C124.967 89.1285 123.652 90.4148 122.481 91.7445C121.729 92.5972 120.819 93.7101 120.689 94.8808C120.342 95.8203 120.27 96.832 120.197 97.8437C119.952 99.289 119.778 100.763 119.648 102.223C119.475 104.189 119.431 106.183 119.778 108.134C120.096 109.941 120.804 111.762 122.047 113.135C123.55 114.768 125.574 115.852 127.698 116.459C129.693 117.037 131.745 117.298 133.812 117.428C135.807 117.558 137.83 117.717 139.81 117.63C143.64 117.471 147.543 116.315 150.144 113.337C154.48 108.409 153.902 100.648 151.85 94.8664ZM133.682 97.6558C133.046 98.7832 131.948 99.7515 130.676 100.084C129.23 100.46 128.118 99.607 127.583 98.2918C127.366 97.7281 127.901 97.3089 128.407 97.3379C128.436 97.3379 128.45 97.3379 128.479 97.3379C128.768 97.3668 128.956 97.6125 129.028 97.8726C129.028 97.8437 129.014 97.8148 129.014 97.7859C129.1 97.916 129.144 98.0461 129.144 98.1761C129.939 99.3468 131.514 98.2773 132.237 97.2511C132.309 96.9765 132.468 96.7742 132.8 96.6441C133.379 96.4128 134 97.1211 133.682 97.6558ZM142.123 107.73C141.761 109.103 140.981 110.895 139.42 111.242C137.7 111.618 135.908 110.721 135.388 108.987C135.127 108.091 136.486 107.614 136.746 108.51C137.05 109.522 138.249 110.273 139.275 109.768C140.099 109.348 140.489 108.293 140.706 107.455C140.937 106.559 142.368 106.834 142.123 107.73ZM146.603 96.0226C146.213 97.1933 145.721 98.4507 144.435 98.841C143.048 99.2601 141.53 98.2484 141.024 96.991C140.677 96.1238 142.036 95.6468 142.383 96.514C142.629 97.1066 143.597 97.8293 144.247 97.3668C144.565 97.1355 144.768 96.8031 144.927 96.4418C144.811 96.2105 144.811 95.9359 145.057 95.7046C145.158 95.6035 145.245 95.5168 145.346 95.4156C145.808 94.9675 146.863 95.2855 146.603 96.0226ZM145.042 126.591C144.955 125.868 144.262 125.955 143.684 126.027C142.788 126.143 141.978 126.259 141.082 126.23C139.955 126.201 138.827 126.157 137.714 126.23C138.076 127.14 138.741 127.892 139.348 128.629C139.984 129.395 140.504 130.262 141.125 131.028C141.443 131.404 142.18 132.329 142.715 131.751C143.308 131.1 143.655 130.146 144.045 129.352C144.421 128.6 145.143 127.473 145.042 126.591ZM122.625 80.8757C122.409 80.7312 122.177 80.6011 121.961 80.4711C120.746 79.8062 119.475 79.1269 118.102 78.8523C117.466 78.7222 116.7 78.5777 116.049 78.6789C115.963 78.6933 115.905 78.7367 115.89 78.7511C115.89 78.7945 115.89 78.8523 115.89 78.8957C115.991 79.6183 116.425 80.3121 116.757 80.948C117.393 82.1765 117.957 84.2433 119.243 85.0671C119.431 84.5179 119.821 83.9976 120.168 83.5929C120.775 82.8703 121.426 82.1765 122.12 81.5406C122.322 81.3671 122.524 81.1937 122.698 80.9914C122.712 80.9769 122.712 80.9769 122.727 80.9625C122.698 80.9335 122.654 80.9046 122.625 80.8757ZM135.778 71.8425C135.532 71.3078 135.272 70.5996 134.78 70.2382C134.419 69.9636 134.072 70.3972 133.87 70.6574C133.089 71.698 132.526 73.0132 132.164 74.2562C131.991 74.8632 131.789 75.5281 131.789 76.164C131.789 76.2652 131.789 76.3664 131.803 76.4531C131.89 76.4097 131.991 76.3808 132.107 76.3808C133.35 76.3664 134.578 76.1929 135.807 76.2507C136.602 76.2941 137.44 76.3664 138.22 76.2218C137.454 74.7476 136.471 73.389 135.778 71.8425ZM152.876 74.7043C151.748 74.8632 150.636 75.1957 149.58 75.6003C148.453 76.0195 147.21 76.4964 146.285 77.3203C146.516 77.5082 146.748 77.725 146.936 77.8695C147.384 78.2164 147.803 78.5777 148.236 78.939C148.814 79.4304 149.421 79.9218 149.971 80.4421C150.245 80.7023 150.549 80.9914 150.751 81.3238C151.141 81.0203 151.604 80.8902 152.009 80.5578C152.486 80.1675 152.63 79.1847 152.731 78.6211C153.006 77.3636 153.136 75.9906 152.876 74.7043ZM114.286 114.248C113.968 113.786 113.607 113.337 113.274 112.875C112.826 112.282 112.335 111.618 112.089 110.895C111.005 111.213 110.528 112.976 109.95 113.829C109.531 114.45 109.097 115.057 108.736 115.708C108.49 116.156 108.143 116.691 108.172 117.211C108.187 117.5 108.779 117.558 109.141 117.558C109.704 117.558 110.282 117.5 110.832 117.399C112.262 117.124 113.361 116.04 114.705 115.491C114.705 115.404 114.72 115.303 114.748 115.202C114.85 114.985 114.416 114.421 114.286 114.248ZM112.06 94.9964C111.655 94.3461 110.6 94.823 110.066 95.0254C109.343 95.3 108.635 95.6468 107.898 95.8781C107.218 96.0949 106.496 96.2105 105.831 96.4562C105.614 96.5429 105.325 96.6296 105.166 96.8031C105.166 96.8175 105.18 96.8175 105.18 96.832C105.311 97.0343 105.47 97.2367 105.657 97.3957C106.264 97.9593 111.179 101.746 111.583 100.951C111.959 100.228 111.916 99.289 111.988 98.4941C112.089 97.4101 112.205 96.3261 112.378 95.2566C112.248 95.2132 112.147 95.1265 112.06 94.9964ZM157.197 122.009C157.053 121.344 157.053 120.766 157.053 120.087C157.053 119.509 157.139 118.728 156.908 118.179C156.923 118.208 156.879 118.165 156.821 118.179C156.691 118.194 156.561 118.237 156.446 118.295C155.579 118.7 154.87 119.538 154.278 120.246C154.003 120.578 153.729 120.925 153.483 121.287C153.425 121.373 153.353 121.475 153.309 121.576C153.295 121.662 153.266 121.735 153.237 121.807C153.859 122.371 154.523 122.905 155.232 123.339C155.954 123.787 156.778 124.25 157.645 124.365C157.573 123.57 157.356 122.79 157.197 122.009ZM161.345 88.6371C160.449 88.7093 159.033 88.3625 158.31 88.9839C158.209 89.0707 158.108 89.114 158.007 89.1429C158.498 90.0101 158.874 90.964 159.235 91.889C159.365 92.2214 159.596 92.655 159.712 93.0886C159.799 93.1464 159.886 93.2187 159.943 93.3343C160.088 93.58 160.464 94.823 160.753 94.8953C160.709 94.8519 160.97 94.6785 161.027 94.6062C161.143 94.4761 161.259 94.3316 161.345 94.1871C161.519 93.9269 161.678 93.6523 161.808 93.3777C162.27 92.4527 163.007 91.6578 163.499 90.7328C163.889 89.9957 164.207 89.2586 164.409 88.4636C163.427 88.2613 162.314 88.5648 161.345 88.6371ZM163.701 106.66C163.369 106.761 162.993 106.675 162.848 106.357C162.603 107.773 162.184 109.045 161.649 110.403C161.519 110.736 161.1 111.589 161.345 111.936C161.504 112.167 161.822 112.268 162.082 112.326C163.137 112.571 164.236 112.586 165.305 112.658C165.782 112.687 166.288 112.716 166.765 112.803C166.505 110.519 165.436 108.149 163.701 106.66Z" fill="#FEBF10"/>
<path d="M154.104 73.6781C154.003 73.3746 153.685 73.1722 153.367 73.2011C151.85 73.3167 150.332 73.7792 148.916 74.2996C147.557 74.8054 146.141 75.4558 145.071 76.4675C144.84 76.6843 144.811 76.93 144.912 77.1468C144.724 77.3636 144.666 77.6816 144.84 78.0285C144.869 78.0718 144.898 78.1007 144.927 78.1441C145.057 78.2308 145.172 78.3175 145.302 78.4042C145.534 78.5777 145.765 78.7511 145.996 78.9246C146.372 79.1992 146.719 79.4882 147.066 79.7917C147.543 80.2109 148.048 80.63 148.525 81.0492C148.656 81.1648 148.858 81.3238 149.031 81.4972C149.696 81.9308 150.347 82.3789 150.954 82.8847C151.141 82.8992 151.344 82.8269 151.488 82.6246C151.922 82.0609 152.702 81.9164 153.208 81.4105C153.757 80.8468 153.945 79.8351 154.119 79.098C154.538 77.3781 154.639 75.398 154.104 73.6781ZM152.76 78.6355C152.645 79.1992 152.514 80.182 152.038 80.5722C151.633 80.9046 151.17 81.0347 150.78 81.3382C150.578 81.0058 150.274 80.7167 150 80.4566C149.45 79.9218 148.843 79.4449 148.265 78.9535C147.832 78.5777 147.413 78.2164 146.965 77.8839C146.762 77.7394 146.545 77.5226 146.314 77.3347C147.225 76.5253 148.482 76.0339 149.609 75.6148C150.664 75.2246 151.777 74.8777 152.905 74.7187C153.136 75.9906 153.006 77.3636 152.76 78.6355ZM115.038 113.496C114.358 112.543 113.679 111.589 113.086 110.577C112.826 110.201 112.566 109.825 112.32 109.435C112.263 109.464 112.205 109.507 112.147 109.551C112.017 109.493 111.858 109.478 111.684 109.507C110.08 109.854 109.531 111.849 108.736 113.048C107.883 114.349 106.626 115.794 106.727 117.442C106.828 119.075 109.039 119.061 110.196 118.945C110.947 118.873 111.684 118.728 112.364 118.41C113.39 117.934 114.272 117.182 115.341 116.792C115.659 116.676 115.789 116.43 115.804 116.17C115.905 116.098 115.977 115.997 116.035 115.852C116.107 115.664 116.136 115.477 116.15 115.289C115.789 114.696 115.442 114.06 115.038 113.496ZM114.763 115.231C114.734 115.332 114.705 115.419 114.72 115.52C113.39 116.055 112.277 117.153 110.846 117.428C110.282 117.529 109.719 117.587 109.155 117.587C108.794 117.587 108.201 117.529 108.187 117.24C108.158 116.719 108.505 116.17 108.75 115.737C109.112 115.086 109.545 114.479 109.964 113.858C110.543 113.005 111.02 111.242 112.104 110.924C112.349 111.646 112.841 112.297 113.289 112.904C113.636 113.352 113.982 113.8 114.3 114.277C114.416 114.421 114.85 114.985 114.763 115.231ZM121.715 78.7078C120.082 77.855 118.477 77.3925 116.642 77.248C115.673 77.1613 114.546 77.4792 114.445 78.6066C114.358 79.5894 114.922 80.5578 115.356 81.396C116.324 83.2605 117.047 85.7609 119.128 86.6281C119.822 85.8187 120.631 85.1105 121.397 84.3878C121.715 84.0121 122.062 83.6652 122.394 83.3183C123.016 82.6679 124.23 81.9453 124.23 80.9335C124.259 79.7628 122.524 79.1269 121.715 78.7078ZM122.698 80.9914C122.524 81.1937 122.322 81.3671 122.12 81.5406C121.426 82.1621 120.775 82.8703 120.168 83.5929C119.822 83.9976 119.431 84.5179 119.243 85.0671C117.957 84.2433 117.393 82.1765 116.757 80.948C116.425 80.3121 115.977 79.6183 115.89 78.8957C115.89 78.8523 115.89 78.7945 115.89 78.7511C115.919 78.7367 115.963 78.6933 116.049 78.6789C116.7 78.5777 117.466 78.7222 118.102 78.8523C119.475 79.1269 120.732 79.8062 121.961 80.471C122.192 80.6011 122.423 80.7167 122.625 80.8757C122.654 80.9046 122.698 80.9335 122.727 80.9624C122.712 80.9769 122.712 80.9914 122.698 80.9914ZM139.94 76.4242C139.348 75.1234 138.538 73.9527 137.816 72.7242C137.382 71.9726 137.079 71.1488 136.674 70.3683C136.284 69.6167 135.734 68.9374 134.896 68.7351C134.116 68.5472 133.335 69.0531 132.858 69.6167C131.774 70.9175 131.109 72.6664 130.661 74.2707C130.401 75.1957 130.112 76.6554 130.632 77.6093C131.644 77.5082 132.757 77.6816 133.711 77.7249C133.841 77.7249 133.986 77.7394 134.116 77.7394C134.795 77.696 135.474 77.6816 136.168 77.7105C137.295 77.7683 138.437 77.8261 139.492 77.3492C139.825 77.2046 140.114 76.8144 139.94 76.4242ZM135.821 76.2507C134.578 76.1929 133.35 76.3664 132.121 76.3808C132.006 76.3808 131.904 76.4097 131.818 76.4531C131.818 76.3519 131.803 76.2652 131.803 76.164C131.803 75.5281 131.991 74.8632 132.179 74.2562C132.54 73.0132 133.104 71.698 133.884 70.6574C134.087 70.3972 134.419 69.9636 134.795 70.2382C135.286 70.5996 135.547 71.3078 135.792 71.8425C136.472 73.389 137.469 74.7476 138.249 76.2218C137.454 76.3808 136.616 76.2941 135.821 76.2507ZM112.942 93.7968C111.54 92.3949 108.909 93.9847 107.406 94.5195C106.004 95.0109 102.579 95.4734 104.039 97.7714C104.414 98.364 105.036 98.8265 105.585 99.2312C106.322 99.766 107.059 100.301 107.811 100.821C108.924 101.602 110.456 102.873 111.916 102.425C112.971 102.107 113.173 100.749 113.274 99.8238C113.462 98.0605 113.592 96.2972 113.925 94.5628C114.069 93.9414 113.419 93.6234 112.942 93.7968ZM111.973 98.5085C111.901 99.3035 111.93 100.243 111.569 100.966C111.164 101.76 106.25 97.9738 105.643 97.4101C105.455 97.2367 105.311 97.0488 105.166 96.8464C105.166 96.832 105.152 96.832 105.152 96.8175C105.311 96.6296 105.6 96.5429 105.816 96.4707C106.496 96.2249 107.204 96.1093 107.883 95.8925C108.62 95.6468 109.329 95.3144 110.051 95.0398C110.6 94.8374 111.656 94.3605 112.046 95.0109C112.132 95.141 112.234 95.2277 112.349 95.2855C112.19 96.3406 112.075 97.4246 111.973 98.5085ZM166.606 107.99C166.115 107.123 165.479 106.313 164.742 105.634C164.424 105.345 163.918 104.839 163.441 105.027C163.166 105.143 163.007 105.302 162.921 105.504C162.718 104.868 161.649 104.767 161.533 105.576C161.403 106.501 161.244 107.426 160.955 108.322C160.709 109.074 160.334 109.768 160.088 110.519C159.727 111.675 159.828 112.803 160.955 113.424C161.909 113.959 163.181 113.959 164.25 114.017C165.19 114.075 166.418 113.988 167.271 114.45C167.777 114.739 168.326 114.262 168.312 113.742C168.283 111.733 167.604 109.739 166.606 107.99ZM165.32 112.644C164.236 112.571 163.152 112.557 162.097 112.311C161.837 112.253 161.519 112.152 161.36 111.921C161.114 111.574 161.533 110.721 161.663 110.389C162.198 109.045 162.617 107.759 162.863 106.342C162.993 106.66 163.383 106.761 163.716 106.646C165.436 108.134 166.505 110.505 166.794 112.774C166.303 112.702 165.797 112.687 165.32 112.644ZM165.595 87.2929C164.178 86.7292 162.704 87.0472 161.23 87.1917C160.016 87.3074 158.513 86.9171 157.486 87.7843C157.197 88.03 157.168 88.3769 157.27 88.666C156.822 88.7382 156.402 89.273 156.706 89.7933C157.067 90.4148 157.327 91.1085 157.616 91.7734C157.775 92.1347 157.92 92.496 158.064 92.8718C158.166 93.0597 158.252 93.2476 158.354 93.4355C158.368 93.4066 158.382 93.3921 158.397 93.3632C158.382 93.4066 158.382 93.4499 158.382 93.4789C158.498 93.7246 158.614 93.9703 158.729 94.2304C158.773 94.2593 158.802 94.2738 158.845 94.2882C159.235 95.0109 159.409 95.7769 160.204 96.196C161.114 96.6874 161.981 95.7769 162.458 95.1121C163.109 94.2015 163.701 93.2042 164.294 92.2503C165.089 90.9785 165.739 89.5765 165.985 88.0734C166.028 87.7843 165.898 87.4085 165.595 87.2929ZM163.513 90.7183C163.022 91.6433 162.299 92.4382 161.822 93.3632C161.678 93.6378 161.519 93.9124 161.36 94.1726C161.259 94.3171 161.157 94.4617 161.042 94.5917C160.97 94.6785 160.709 94.8519 160.767 94.8808C160.464 94.7941 160.102 93.5511 159.958 93.3199C159.886 93.2042 159.813 93.132 159.727 93.0742C159.625 92.6406 159.394 92.207 159.25 91.8746C158.874 90.9496 158.498 89.9957 158.021 89.1285C158.122 89.114 158.223 89.0562 158.325 88.9695C159.062 88.348 160.464 88.6949 161.36 88.6226C162.343 88.5503 163.441 88.2468 164.438 88.4347C164.222 89.2441 163.904 89.9812 163.513 90.7183ZM158.643 121.952C158.44 121.041 158.513 120.188 158.484 119.263C158.469 118.555 158.426 117.616 157.862 117.11C157.414 116.691 156.793 116.691 156.229 116.821C155.029 117.11 154.018 118.295 153.252 119.191C152.876 119.625 151.893 120.593 151.821 121.344C151.532 121.605 151.416 122.082 151.777 122.443C153.411 124.062 155.925 126.071 158.382 125.796C158.672 125.767 159.018 125.536 159.033 125.218C159.12 124.091 158.903 123.05 158.643 121.952ZM155.203 123.339C154.495 122.905 153.815 122.371 153.208 121.807C153.252 121.735 153.281 121.662 153.281 121.576C153.338 121.475 153.396 121.373 153.454 121.287C153.7 120.925 153.974 120.593 154.249 120.246C154.841 119.523 155.564 118.7 156.417 118.295C156.532 118.237 156.663 118.194 156.793 118.179C156.85 118.179 156.894 118.208 156.879 118.179C157.125 118.728 157.038 119.509 157.024 120.087C157.009 120.752 157.024 121.344 157.168 122.009C157.327 122.79 157.559 123.556 157.602 124.351C156.764 124.25 155.94 123.787 155.203 123.339ZM144.941 124.611C144.074 124.365 143.091 124.654 142.224 124.784C141.458 124.885 140.62 124.77 139.854 124.755C139.015 124.727 138.163 124.741 137.324 124.813C136.847 124.857 136.645 125.247 136.688 125.608C136.37 125.738 136.125 126.071 136.269 126.49C136.688 127.762 137.613 128.788 138.452 129.8C139.218 130.739 139.796 131.823 140.677 132.661C141.371 133.297 142.412 133.659 143.264 133.138C144.291 132.517 144.71 131.23 145.23 130.204C146.068 128.585 147.615 125.362 144.941 124.611ZM144.045 129.352C143.655 130.146 143.308 131.1 142.715 131.751C142.181 132.329 141.443 131.418 141.125 131.028C140.489 130.248 139.984 129.395 139.348 128.629C138.741 127.892 138.076 127.126 137.715 126.23C138.842 126.157 139.969 126.201 141.082 126.23C141.993 126.259 142.802 126.143 143.684 126.027C144.262 125.955 144.956 125.868 145.042 126.591C145.143 127.473 144.421 128.6 144.045 129.352ZM129.274 124.813C129.1 124.105 128.32 123.628 127.727 123.296C126.99 122.862 126.166 122.559 125.372 122.241C124.36 121.821 123.507 121.128 122.51 120.694C122.307 120.607 122.12 120.607 121.961 120.68C121.643 120.535 121.267 120.607 121.093 121.027C120.457 122.703 120.515 124.278 120.616 126.042C120.718 127.848 120.515 129.655 121.064 131.418C121.18 131.794 121.628 131.982 121.989 131.866C123.29 131.418 124.533 130.71 125.689 129.959C126.976 129.135 128.334 128.094 129.043 126.707C129.361 126.085 129.418 125.449 129.274 124.813ZM127.641 126.273C126.99 127.415 125.689 128.239 124.606 128.918C123.868 129.395 123.073 129.828 122.264 130.19C122.033 128.932 122.105 127.632 122.091 126.374C122.062 124.914 121.859 123.556 122.25 122.168C122.943 122.53 123.579 122.992 124.273 123.339C124.88 123.628 125.516 123.845 126.123 124.119C126.701 124.38 127.438 124.654 127.843 125.175C128.089 125.464 127.8 125.984 127.641 126.273ZM132.8 96.6585C132.468 96.8031 132.309 96.991 132.237 97.2656C131.514 98.2773 129.939 99.3468 129.144 98.1906C129.144 98.0605 129.1 97.9304 129.014 97.8003C129.014 97.8292 129.028 97.8582 129.028 97.8871C128.956 97.6269 128.754 97.3812 128.479 97.3523C128.45 97.3523 128.436 97.3523 128.407 97.3523C127.901 97.3089 127.366 97.7425 127.583 98.3062C128.103 99.6214 129.216 100.46 130.676 100.098C131.948 99.7804 133.046 98.7976 133.682 97.6703C134 97.121 133.379 96.4128 132.8 96.6585ZM145.36 95.4156C145.259 95.5167 145.172 95.6035 145.071 95.7046C144.825 95.9503 144.825 96.2249 144.941 96.4417C144.782 96.8031 144.58 97.1499 144.262 97.3667C143.611 97.8292 142.643 97.1066 142.397 96.514C142.05 95.6468 140.677 96.1238 141.039 96.991C141.545 98.2628 143.062 99.2746 144.45 98.841C145.736 98.4507 146.227 97.1789 146.618 96.0226C146.863 95.2855 145.808 94.9675 145.36 95.4156ZM140.706 107.455C140.489 108.293 140.099 109.348 139.275 109.768C138.249 110.273 137.05 109.522 136.746 108.51C136.486 107.614 135.113 108.091 135.388 108.987C135.908 110.721 137.7 111.618 139.42 111.242C140.981 110.895 141.761 109.103 142.123 107.73C142.368 106.834 140.938 106.559 140.706 107.455Z" fill="#29363D"/>
<path d="M153.729 96.0805C152.847 92.8719 151.315 90.0246 148.901 87.7121C144.551 83.5207 137.873 81.9019 132.063 83.3906C128.609 84.2723 125.632 86.5125 123.16 88.984C121.513 90.6172 119.055 92.9152 119.243 95.4445C119.214 95.5023 119.2 95.5457 119.186 95.618C118.492 98.682 118.116 101.948 118.102 105.085C118.102 107.961 118.665 110.909 120.342 113.294C122.365 116.156 125.805 117.616 129.129 118.309C131.124 118.729 133.176 118.859 135.2 118.945C137.18 119.046 139.145 119.162 141.125 119.003C144.883 118.685 148.511 117.24 151.112 114.45C153.309 112.095 154.379 108.915 154.697 105.764C155.029 102.498 154.581 99.2168 153.729 96.0805ZM150.159 113.337C147.557 116.315 143.655 117.471 139.825 117.63C137.83 117.717 135.807 117.558 133.827 117.428C131.76 117.298 129.707 117.037 127.713 116.459C125.588 115.852 123.565 114.768 122.062 113.135C120.804 111.762 120.111 109.941 119.793 108.134C119.446 106.183 119.489 104.189 119.663 102.223C119.793 100.778 119.966 99.3035 120.212 97.8437C120.284 96.832 120.356 95.8203 120.703 94.8808C120.833 93.7101 121.744 92.5973 122.495 91.7445C123.666 90.4004 124.981 89.1285 126.369 88.0156C127.901 86.7871 129.592 85.7609 131.442 85.0961C133.162 84.4601 134.997 84.2723 136.833 84.3012C143.496 84.3879 149.624 88.5504 151.864 94.8664C153.902 100.648 154.48 108.409 150.159 113.337Z" fill="#29363D"/>
<animateTransform
            additive="sum"
              attributeName="transform"
              attributeType="XML"
              type="rotate"
              from="0 138 100"
              to="360 138 100"
              dur="6s"
              repeatCount="indefinite"
            />
</g> 
<path d="M91.6334 67.7947V107.377V108.377H92.6334H99.8819V116.265H92.6334H91.6334V117.265V132.2H83.0201V117.322V116.322H82.0202H51.9688V107.772C57.0443 101.142 62.0604 94.4742 67.017 87.7702C71.9377 81.1149 76.8945 74.4686 81.8873 67.8314L91.6334 67.7947ZM82.0202 108.56H83.0201V107.56V87.0485V87.0461V87.0437V87.0413V87.0389V87.0365V87.0341V87.0317V87.0293V87.0268V87.0244V87.0219V87.0195V87.017V87.0145V87.012V87.0095V87.007V87.0045V87.002V86.9995V86.997V86.9944V86.9919V86.9894V86.9868V86.9842V86.9817V86.9791V86.9765V86.9739V86.9713V86.9687V86.9661V86.9634V86.9608V86.9582V86.9555V86.9529V86.9502V86.9475V86.9448V86.9422V86.9395V86.9368V86.9341V86.9313V86.9286V86.9259V86.9231V86.9204V86.9176V86.9149V86.9121V86.9093V86.9066V86.9038V86.901V86.8982V86.8953V86.8925V86.8897V86.8869V86.884V86.8812V86.8783V86.8754V86.8726V86.8697V86.8668V86.8639V86.861V86.8581V86.8552V86.8522V86.8493V86.8464V86.8434V86.8404V86.8375V86.8345V86.8315V86.8285V86.8255V86.8225V86.8195V86.8165V86.8135V86.8105V86.8074V86.8044V86.8013V86.7982V86.7952V86.7921V86.789V86.7859V86.7828V86.7797V86.7766V86.7735V86.7703V86.7672V86.7641V86.7609V86.7577V86.7546V86.7514V86.7482V86.745V86.7418V86.7386V86.7354V86.7322V86.7289V86.7257V86.7225V86.7192V86.716V86.7127V86.7094V86.7061V86.7028V86.6995V86.6962V86.6929V86.6896V86.6863V86.6829V86.6796V86.6763V86.6729V86.6695V86.6662V86.6628V86.6594V86.656V86.6526V86.6492V86.6458V86.6423V86.6389V86.6355V86.632V86.6286V86.6251V86.6216V86.6182V86.6147V86.6112V86.6077V86.6042V86.6007V86.5971V86.5936V86.5901V86.5865V86.583V86.5794V86.5758V86.5723V86.5687V86.5651V86.5615V86.5579V86.5543V86.5506V86.547V86.5434V86.5397V86.5361V86.5324V86.5287V86.5251V86.5214V86.5177V86.514V86.5103V86.5066V86.5029V86.4991V86.4954V86.4917V86.4879V86.4842V86.4804V86.4766V86.4728V86.4691V86.4653V86.4615V86.4576V86.4538V86.45V86.4462V86.4423V86.4385V86.4346V86.4308V86.4269V86.423V86.4191V86.4152V86.4113V86.4074V86.4035V86.3996V86.3957V86.3917V86.3878V86.3838V86.3799V86.3759V86.3719V86.3679V86.3639V86.3599V86.3559V86.3519V86.3479V86.3439V86.3398V86.3358V86.3317V86.3277V86.3236V86.3195V86.3155V86.3114V86.3073V86.3032V86.2991V86.2949V86.2908V86.2867V86.2825V86.2784V86.2742V86.2701V86.2659V86.2617V86.2575V86.2533V86.2491V86.2449V86.2407V86.2365V86.2322V86.228V86.2238V86.2195V86.2152V86.211V86.2067V86.2024V86.1981V86.1938V86.1895V86.1852V86.1809V86.1765V86.1722V86.1679V86.1635V86.1591V86.1548V86.1504V86.146V86.1416V86.1372V86.1328V86.1284V86.124V86.1196V86.1151V86.1107V86.1062V86.1018V86.0973V86.0928V86.0883V86.0839V86.0794V86.0749V86.0703V86.0658V86.0613V86.0568V86.0522V86.0477V86.0431V86.0385V86.034V86.0294V86.0248V86.0202V86.0156V86.011V86.0064V86.0018V85.9971V85.9925V85.9878V85.9832V85.9785V85.9739V85.9692V85.9645V85.9598V85.9551V85.9504V85.9457V85.9409V85.9362V85.9315V85.9267V85.922V85.9172V85.9125V85.9077V85.9029V85.8981V85.8933V85.8885V85.8837V85.8789V85.874V85.8692V85.8644V85.8595V85.8546V85.8498V85.8449V85.84V85.8351V85.8302V85.8253V85.8204V85.8155V85.8106V85.8056V85.8007V85.7958V85.7908V85.7858V85.7809V85.7759V85.7709V85.7659V85.7609V85.7559V85.7509V85.7458V85.7408V85.7358V85.7307V85.7257V85.7206V85.7155V85.7105V85.7054V85.7003V85.6952V85.6901V85.685V85.6798V85.6747V85.6696V85.6644V85.6593V85.6541V85.6489V85.6438V85.6386V85.6334V85.6282V85.623V85.6178V85.6126V85.6073V85.6021V85.5968V85.5916V85.5863V85.5811V85.5758V85.5705V85.5652V85.5599V85.5546V85.5493V85.544V85.5387V85.5333V85.528V85.5226V85.5173V85.5119V85.5066V85.5012V85.4958V85.4904V85.485V85.4796V85.4742V85.4687V85.4633V85.4579V85.4524V85.447V85.4415V85.436V85.4306V85.4251V85.4196V85.4141V85.4086V85.4031V85.3975V85.392V85.3865V85.3809V85.3754V85.3698V85.3642V85.3587V85.3531V85.3475V85.3419V85.3363V85.3307V85.3251V85.3194V85.3138V85.3081V85.3025V85.2968V85.2912V85.2855V85.2798V85.2741V85.2684V85.2627V85.257V85.2513V85.2456V85.2398V85.2341V85.2283V85.2226V85.2168V85.2111V85.2053V85.1995V85.1937V85.1879V85.1821V85.1763V85.1704V85.1646V85.1588V85.1529V85.1471V85.1412V85.1353V85.1295V85.1236V85.1177V85.1118V85.1059V85.1V85.094V85.0881V85.0822V85.0762V85.0703V85.0643V85.0583V85.0524V85.0464V85.0404V85.0344V85.0284V85.0224V85.0164V85.0103V85.0043V84.9983V84.9922V84.9861V84.9801V84.974V84.9679V84.9618V84.9557V84.9496V84.9435V84.9374V84.9313V84.9251V84.919V84.9129V84.9067V84.9005V84.8944V84.8882V84.882V84.8758V84.8696V84.8634V84.8572V84.851V84.8447C83.0201 83.8068 83.0614 82.715 83.1443 81.5688L83.3927 78.1336L81.3432 80.9016L62.0451 106.965L60.8641 108.56H62.8488H82.0202Z" fill="#FEBF10" stroke="#29363D" stroke-width="2"/>
</svg>
